<?xml version="1.0" encoding="utf-8"?>
<!-- Generator: Adobe Illustrator 25.4.1, SVG Export Plug-In . SVG Version: 6.00 Build 0)  -->
<svg version="1.1" id="Layer_1" xmlns="http://www.w3.org/2000/svg" xmlns:xlink="http://www.w3.org/1999/xlink" x="0px" y="0px"
	 viewBox="0 0 110.3 75.6" style="enable-background:new 0 0 110.3 75.6;" xml:space="preserve">
<style type="text/css">
	.st0{fill:#3A3633;}
	.st1{fill:#EAD5C8;}
</style>
<g>
	<path class="st0" d="M105.5,12.8V3.2V0H100v3.2H10.3V0H4.8v3.2v9.6V34h100.7V12.8z M52,29.3H12.1v-3.6c0-3.1,2.5-5.5,5.5-5.5h28.8
		c3.1,0,5.5,2.5,5.5,5.5V29.3z M98.3,29.3H58.4v-3.6c0-3.1,2.5-5.5,5.5-5.5h28.8c3.1,0,5.5,2.5,5.5,5.5V29.3z"/>
	<polygon class="st0" points="0,35.7 0,64.2 8.8,64.2 8.8,75.6 19.9,75.6 19.9,64.2 90.4,64.2 90.4,75.6 101.4,75.6 101.4,64.2 
		110.3,64.2 110.3,35.7 	"/>
</g>
<path class="st1" d="M46.4,115.6H17.6c-3.1,0-5.5,2.5-5.5,5.5v3.6h39.9v-3.6C51.9,118,49.5,115.6,46.4,115.6z"/>
<path class="st1" d="M92.7,115.6H63.9c-3.1,0-5.5,2.5-5.5,5.5v3.6h39.9v-3.6C98.2,118,95.8,115.6,92.7,115.6z"/>
</svg>
