<?xml version="1.0" encoding="utf-8"?>
<!-- Generator: Adobe Illustrator 25.4.1, SVG Export Plug-In . SVG Version: 6.00 Build 0)  -->
<svg version="1.1" id="Layer_1" xmlns="http://www.w3.org/2000/svg" xmlns:xlink="http://www.w3.org/1999/xlink" x="0px" y="0px"
	 viewBox="0 0 28.3 25.7" style="enable-background:new 0 0 28.3 25.7;" xml:space="preserve">
<style type="text/css">
	.st0{fill:#2C2927;}
</style>
<g>
	<path class="st0" d="M14.2,15.1c2.1,3.6,4.1,7,6.1,10.6c-4.1,0-8.1,0-12.2,0C10.1,22.1,12.1,18.7,14.2,15.1z M11.7,23.5
		c1.7,0,3.2,0,4.9,0c-0.8-1.4-1.6-2.8-2.4-4.2C13.3,20.8,12.5,22.1,11.7,23.5z"/>
	<path class="st0" d="M22.2,24.6c-2.1-3.6-4.1-7-6.1-10.6c4.1,0,8.1,0,12.2,0C26.3,17.5,24.3,21,22.2,24.6z M24.7,16.1
		c-1.6,0-3.2,0-4.8,0c0.8,1.4,1.6,2.8,2.4,4.2C23.1,18.9,23.9,17.5,24.7,16.1z"/>
	<path class="st0" d="M6.1,24.5C4,21,2,17.5,0,14c4.1,0,8.1,0,12.2,0C10.2,17.5,8.2,21,6.1,24.5z M3.7,16.1c0.8,1.4,1.6,2.8,2.4,4.2
		c0.8-1.5,1.6-2.8,2.4-4.2C6.9,16.1,5.3,16.1,3.7,16.1z"/>
	<path class="st0" d="M20.3,0c-2.1,3.6-4,7-6.1,10.6C12.1,7,10.1,3.6,8.1,0C12.2,0,16.2,0,20.3,0z M14.2,6.4
		c0.8-1.5,1.6-2.8,2.4-4.2c-1.7,0-3.2,0-4.9,0C12.6,3.6,13.3,4.9,14.2,6.4z"/>
	<path class="st0" d="M12.2,11.7c-4.1,0-8.1,0-12.2,0c2-3.5,4-7,6.1-10.6C8.2,4.7,10.1,8.1,12.2,11.7z M3.6,9.6c1.7,0,3.2,0,4.9,0
		C7.7,8.1,6.9,6.8,6.1,5.3C5.3,6.8,4.5,8.1,3.6,9.6z"/>
	<path class="st0" d="M16.2,11.7c2-3.5,4-7,6.1-10.5c2,3.5,4,7,6.1,10.5C24.2,11.7,20.3,11.7,16.2,11.7z M19.8,9.6
		c1.7,0,3.2,0,4.9,0c-0.8-1.4-1.6-2.8-2.4-4.2C21.4,6.8,20.6,8.1,19.8,9.6z"/>
	<polygon class="st0" points="13.4,12.5 13.4,13.4 14.2,13.8 14.9,13.4 14.9,12.5 14.2,12 	"/>
</g>
</svg>
