<?xml version="1.0" encoding="utf-8"?>
<!-- Generator: Adobe Illustrator 25.4.1, SVG Export Plug-In . SVG Version: 6.00 Build 0)  -->
<svg version="1.1" id="Layer_1" xmlns="http://www.w3.org/2000/svg" xmlns:xlink="http://www.w3.org/1999/xlink" x="0px" y="0px"
	 viewBox="0 0 77.1 75.6" style="enable-background:new 0 0 77.1 75.6;" xml:space="preserve">
<style type="text/css">
	.st0{fill:#3A3633;}
	.st1{fill:#EAD5C8;}
</style>
<path class="st0" d="M69.1,26.7v-21c0-3.2-2.6-5.7-5.7-5.7H13.7C10.6,0,8,2.6,8,5.7v21H0v37h3.9v11.9h11.6V63.7h48v11.9h11.6V63.7
	h2.2v-37H69.1z M62.7,48.3H14.4v-6.4c0-2.5,0.6-4.7,1.7-6.4c1.2-2,3-3.3,5-3.3H56c2,0,3.8,1.3,5,3.3c1,1.7,1.7,4,1.7,6.4V48.3z"/>
<path class="st1" d="M61,105.8c-1.2-2-3-3.3-5-3.3H21.1c-2,0-3.8,1.3-5,3.3c-1,1.7-1.7,4-1.7,6.4v6.4h48.3v-6.4
	C62.7,109.8,62.1,107.5,61,105.8z"/>
</svg>
