<?xml version="1.0" encoding="utf-8"?>
<!-- Generator: Adobe Illustrator 25.4.1, SVG Export Plug-In . SVG Version: 6.00 Build 0)  -->
<svg version="1.1" id="Layer_1" xmlns="http://www.w3.org/2000/svg" xmlns:xlink="http://www.w3.org/1999/xlink" x="0px" y="0px"
	 viewBox="0 0 19 17.2" style="enable-background:new 0 0 19 17.2;" xml:space="preserve">
<style type="text/css">
	.st0{fill:#2C2926;}
</style>
<g>
	<path class="st0" d="M9.5,10.1c1.4,2.4,2.7,4.7,4.1,7.1c-2.8,0-5.4,0-8.2,0C6.8,14.8,8.1,12.5,9.5,10.1z M7.9,15.8
		c1.1,0,2.2,0,3.3,0c-0.6-1-1.1-1.9-1.6-2.8C8.9,13.9,8.4,14.8,7.9,15.8z"/>
	<path class="st0" d="M14.9,16.5c-1.4-2.4-2.7-4.7-4.1-7.1c2.7,0,5.4,0,8.2,0C17.6,11.7,16.3,14.1,14.9,16.5z M16.5,10.8
		c-1.1,0-2.1,0-3.2,0c0.5,1,1.1,1.9,1.6,2.8C15.5,12.6,16,11.7,16.5,10.8z"/>
	<path class="st0" d="M4.1,16.4C2.7,14.1,1.4,11.7,0,9.4c2.7,0,5.4,0,8.2,0C6.8,11.7,5.5,14,4.1,16.4z M2.5,10.8
		c0.6,1,1.1,1.9,1.6,2.8c0.6-1,1.1-1.9,1.6-2.8C4.6,10.8,3.6,10.8,2.5,10.8z"/>
	<path class="st0" d="M13.6,0c-1.4,2.4-2.7,4.7-4.1,7.1C8.1,4.7,6.8,2.4,5.4,0C8.2,0,10.8,0,13.6,0z M9.5,4.3c0.6-1,1.1-1.9,1.6-2.8
		c-1.1,0-2.2,0-3.3,0C8.4,2.4,8.9,3.3,9.5,4.3z"/>
	<path class="st0" d="M8.2,7.8c-2.8,0-5.4,0-8.2,0c1.4-2.4,2.7-4.7,4.1-7.1C5.5,3.1,6.8,5.4,8.2,7.8z M2.4,6.4c1.1,0,2.2,0,3.3,0
		c-0.6-1-1.1-1.9-1.6-2.8C3.5,4.5,3,5.4,2.4,6.4z"/>
	<path class="st0" d="M10.8,7.8c1.4-2.4,2.7-4.7,4.1-7.1c1.4,2.4,2.7,4.7,4.1,7.1C16.2,7.8,13.6,7.8,10.8,7.8z M13.3,6.4
		c1.1,0,2.1,0,3.3,0c-0.5-1-1.1-1.9-1.6-2.8C14.3,4.6,13.8,5.4,13.3,6.4z"/>
	<polygon class="st0" points="8.9,8.4 8.9,9 9.5,9.3 10,9 10,8.4 9.5,8 	"/>
</g>
</svg>
