<?xml version="1.0" encoding="utf-8"?>
<!-- Generator: Adobe Illustrator 25.4.1, SVG Export Plug-In . SVG Version: 6.00 Build 0)  -->
<svg version="1.1" id="Layer_1" xmlns="http://www.w3.org/2000/svg" xmlns:xlink="http://www.w3.org/1999/xlink" x="0px" y="0px"
	 viewBox="0 0 32.16 32.16" style="enable-background:new 0 0 32.16 32.16;" xml:space="preserve">
<style type="text/css">
	.st0{fill:#FFFFFF;}
	.st1{fill:#2C2926;}
</style>
<circle class="st0" cx="16.55" cy="16.08" r="15.12"/>
<circle class="st0" cx="16.08" cy="16.08" r="16.08"/>
<g>
	<path class="st1" d="M16.08,17.59c1.38,2.39,2.72,4.71,4.09,7.08c-2.75,0-5.42,0-8.18,0C13.36,22.31,14.7,19.99,16.08,17.59z
		 M14.45,23.24c1.12,0,2.16,0,3.26,0c-0.56-0.96-1.08-1.86-1.63-2.82C15.51,21.41,14.99,22.3,14.45,23.24z"/>
	<path class="st1" d="M21.49,23.94c-1.38-2.4-2.72-4.7-4.08-7.07c2.73,0,5.39,0,8.16,0C24.21,19.23,22.87,21.55,21.49,23.94z
		 M23.11,18.3c-1.1,0-2.14,0-3.25,0c0.55,0.95,1.07,1.85,1.63,2.81C22.06,20.12,22.58,19.23,23.11,18.3z"/>
	<path class="st1" d="M10.68,23.93c-1.38-2.38-2.71-4.7-4.08-7.06c2.73,0,5.4,0,8.16,0C13.4,19.22,12.07,21.53,10.68,23.93z
		 M9.05,18.29c0.55,0.96,1.07,1.85,1.63,2.82c0.57-0.99,1.08-1.88,1.62-2.82C11.2,18.29,10.16,18.29,9.05,18.29z"/>
	<path class="st1" d="M20.18,7.49c-1.37,2.38-2.71,4.69-4.09,7.09c-1.38-2.39-2.72-4.71-4.1-7.09C14.75,7.49,17.42,7.49,20.18,7.49z
		 M16.09,11.75c0.57-0.99,1.09-1.89,1.63-2.83c-1.13,0-2.16,0-3.26,0C15,9.88,15.52,10.77,16.09,11.75z"/>
	<path class="st1" d="M14.76,15.3c-2.75,0-5.41,0-8.17,0c1.36-2.36,2.7-4.68,4.08-7.07C12.05,10.62,13.39,12.93,14.76,15.3z
		 M9.04,13.89c1.12,0,2.15,0,3.27,0c-0.55-0.96-1.08-1.86-1.64-2.83C10.12,12.02,9.6,12.92,9.04,13.89z"/>
	<path class="st1" d="M17.41,15.3c1.36-2.36,2.7-4.67,4.08-7.06c1.37,2.37,2.71,4.69,4.08,7.06C22.83,15.3,20.16,15.3,17.41,15.3z
		 M19.86,13.9c1.11,0,2.15,0,3.27,0c-0.55-0.96-1.07-1.86-1.63-2.83C20.93,12.04,20.41,12.94,19.86,13.9z"/>
	<polygon class="st1" points="15.54,15.84 15.54,16.46 16.07,16.76 16.61,16.46 16.61,15.84 16.07,15.53 	"/>
</g>
</svg>
