<?xml version="1.0" encoding="utf-8"?>
<!-- Generator: Adobe Illustrator 25.4.1, SVG Export Plug-In . SVG Version: 6.00 Build 0)  -->
<svg version="1.1" id="Layer_1" xmlns="http://www.w3.org/2000/svg" xmlns:xlink="http://www.w3.org/1999/xlink" x="0px" y="0px"
	 viewBox="0 0 1600 1000" style="enable-background:new 0 0 1600 1000;" xml:space="preserve">
<style type="text/css">
	.st0{fill:none;}
	.st1{opacity:0.2;fill:#7AA5A0;}
	.st2{fill:#CBD3D0;}
	.st3{fill:url(#SVGID_1_);}
</style>
<pattern  y="79.06" width="60.13" height="104.22" patternUnits="userSpaceOnUse" id="gråblå" viewBox="0 -104.22 60.13 104.22" style="overflow:visible;">
	<g>
		<rect y="-104.22" class="st0" width="60.13" height="104.22"/>
		<polygon class="st1" points="32.35,-0.13 32.28,0 28.43,0 28.36,-0.13 29.36,-1.86 31.36,-1.86 		"/>
		<polygon class="st1" points="32.35,-104.22 31.36,-102.5 29.36,-102.5 28.36,-104.22 		"/>
		<polygon class="st2" points="60.13,-53.03 58.95,-53.03 57.96,-51.3 58.95,-49.58 60.13,-49.58 		"/>
		<g>
			<path class="st2" d="M51.75-17.44L34.59-7.54v-19.8L51.75-17.44z M49.08-16.72l1.18-0.67l-1.16-0.67l-12.63-7.3l-1.18-0.67v1.34
				l0.02,14.57v1.34l1.16-0.67L49.08-16.72z"/>
			<path class="st2" d="M25.85-27.4v19.74L8.74-17.53L25.85-27.4z M25.15-10.3l-0.02-14.52v-1.34l-1.16,0.67l-12.57,7.27l-1.16,0.67
				l1.18,0.67l12.58,7.26l1.16,0.67V-10.3z"/>
			<path class="st2" d="M56.17-9.88V0h-0.72l-0.01-7.3l-0.01-1.34l-1.16,0.67L41.68-0.71l-1.16,0.67L40.58,0h-1.44l-0.06-0.04
				L56.17-9.88z"/>
			<path class="st2" d="M21.21,0h-1.34l-1.1-0.64L6.14-7.9L4.98-8.57V0H4.27v-9.79L21.21,0z"/>
			<path class="st2" d="M56.17-104.22v9.98l-17.09-9.87l0.19-0.11h1.43l-0.18,0.11l1.16,0.67l12.6,7.27l1.18,0.67l-0.01-1.34
				l-0.01-7.38H56.17z"/>
			<path class="st2" d="M25.85-96.5v19.82L8.71-86.59L25.85-96.5z M25.15-95.26l-1.16,0.67l-12.63,7.3l-1.18,0.67l1.18,0.67
				l12.63,7.27l1.16,0.67V-95.26z"/>
			<path class="st2" d="M51.7-86.51l-17.09,9.88v-19.75L51.7-86.51z M49.13-85.83l1.18-0.68l-1.18-0.67l-12.65-7.29l-1.16-0.67
				v17.28l1.16-0.67L49.13-85.83z"/>
			<path class="st2" d="M21.32-104.03L4.27-94.17v-10.05h0.71v8.81l1.16-0.67l12.63-7.3l1.16-0.67l-0.29-0.17h1.34L21.32-104.03z"/>
			<path class="st2" d="M56.17-78.58v19.75L39.06-68.7L56.17-78.58z M55.46-60.14l-0.01-1.34l-0.01-14.52l-0.01-1.34l-1.16,0.67
				L41.71-69.4l-1.16,0.67l1.16,0.67l12.58,7.24L55.46-60.14z"/>
			<path class="st2" d="M56.17-43.58v19.81l-17.16-9.92L56.17-43.58z M55.45-42.34l-1.16,0.67l-12.63,7.29l-1.16,0.67l1.16,0.67
				l12.63,7.28l1.16,0.67V-42.34z"/>
			<path class="st2" d="M50.95-51.11L33.9-41.26v-19.7L50.95-51.11z M48.4-50.46l1.16-0.67l-1.16-0.67l-12.63-7.28l-1.16-0.67v17.26
				l1.16-0.67L48.4-50.46z"/>
			<path class="st2" d="M21.42-68.62L4.27-58.71v-19.8L21.42-68.62z M18.77-67.9l1.16-0.67l-1.16-0.67L6.14-76.53L4.96-77.2
				l0.01,1.34L5-61.29v1.34l1.16-0.67L18.77-67.9z"/>
			<path class="st2" d="M25.84-61.06v19.73L8.75-51.21L25.84-61.06z M25.14-43.94l-0.02-14.55v-1.34l-1.16,0.67l-12.59,7.28
				l-1.16,0.67l1.18,0.67l12.6,7.27l1.16,0.68V-43.94z"/>
			<path class="st2" d="M21.35-33.59L4.27-23.72v-19.75L21.35-33.59z M18.79-32.92l1.16-0.67l-1.16-0.67l-12.65-7.3l-1.16-0.67
				v17.28l1.16-0.67L18.79-32.92z"/>
		</g>
		<polygon class="st2" points="0,-53.03 1.03,-53.03 2.03,-51.3 1.03,-49.58 0,-49.58 		"/>
	</g>
</pattern>
<pattern  id="SVGID_1_" xlink:href="#gr√•bl√•" patternTransform="matrix(0.8093 0 0 0.8093 -1365.7283 -1433.2841)">
</pattern>
<rect x="-10.79" y="-8.78" class="st3" width="1648.71" height="1033.19"/>
</svg>
