<?xml version="1.0" encoding="utf-8"?>
<!-- Generator: Adobe Illustrator 25.4.1, SVG Export Plug-In . SVG Version: 6.00 Build 0)  -->
<svg version="1.1" id="Layer_1" xmlns="http://www.w3.org/2000/svg" xmlns:xlink="http://www.w3.org/1999/xlink" x="0px" y="0px"
	 viewBox="0 0 130.4 165.7" style="enable-background:new 0 0 130.4 165.7;" xml:space="preserve">
<style type="text/css">
	.st0{fill:#2C2926;}
</style>
<g>
	<path class="st0" d="M53.8,0h-2.1c0,0.9,0,1.8,0,2.8c-1.5-0.8-2.8-1.6-4.2-2.5L48,0h-4.3l-0.6,0.3c3.6,2.1,7.1,4.1,10.7,6.2
		C53.9,4.3,53.9,2.2,53.8,0z"/>
	<path class="st0" d="M39.7,2.3C36.1,4.4,32.6,6.4,29,8.5c3.6,2.1,7.1,4.1,10.7,6.2C39.7,10.5,39.7,6.5,39.7,2.3z M37.6,10.9
		c-1.4-0.8-2.8-1.6-4.3-2.5c1.4-0.8,2.8-1.6,4.3-2.5V10.9z"/>
	<path class="st0" d="M42,2.4c0,4.1,0,8.2,0,12.3c3.6-2.1,7.1-4.1,10.7-6.2C49.1,6.4,45.6,4.4,42,2.4z M44.1,6.1
		c1.5,0.8,2.8,1.6,4.3,2.5c-1.5,0.8-2.8,1.6-4.3,2.5V6.1z"/>
	<path class="st0" d="M37.9,0h-4.2c0.2,0.1,0.4,0.2,0.6,0.4C32.9,1.2,31.5,2,30,2.8V0h-2.1c0,2.2,0,4.3,0,6.5
		c3.6-2.1,7.1-4.1,10.6-6.1C38.3,0.2,38.1,0.1,37.9,0z"/>
	<polygon class="st0" points="41.9,0.3 41.4,1.1 40.5,1.1 40,0.3 40.2,0 41.7,0 	"/>
</g>
<g>
	<path class="st0" d="M23.8,0c0,0.9,0,1.7,0,2.6C22.4,1.8,21,1,19.6,0.1c0.1,0,0.2-0.1,0.2-0.1h-4.3c-0.1,0-0.2,0.1-0.2,0.1
		c3.6,2.1,7.1,4.1,10.7,6.1V0H23.8z"/>
	<path class="st0" d="M1.2,8.3c3.6,2.1,7.1,4.1,10.7,6.2V2.1C8.2,4.2,4.7,6.2,1.2,8.3z M9.7,10.7C8.3,9.9,6.9,9.1,5.5,8.3
		c1.4-0.8,2.8-1.6,4.3-2.5V10.7z"/>
	<path class="st0" d="M14.1,2.2v12.3c3.6-2.1,7.1-4.1,10.7-6.2C21.2,6.3,17.7,4.2,14.1,2.2z M16.2,5.9c1.5,0.8,2.8,1.6,4.3,2.5
		c-1.5,0.9-2.8,1.6-4.3,2.5V5.9z"/>
	<path class="st0" d="M10.3,0H6.1c0.1,0.1,0.2,0.1,0.3,0.2C5,1,3.6,1.8,2.1,2.6V0H0c0,2.1,0,4.2,0,6.3c3.6-2.1,7.1-4.1,10.6-6.1
		C10.5,0.1,10.4,0.1,10.3,0z"/>
	<polygon class="st0" points="14,0.1 13.5,0.9 12.6,0.9 12.1,0.1 12.2,0 13.9,0 	"/>
</g>
<g>
	<path class="st0" d="M28.2,9.9v12.3c3.6-2.1,7.1-4.1,10.7-6.2C35.3,14,31.8,12,28.2,9.9z M30.4,13.6c1.4,0.8,2.8,1.6,4.3,2.5
		c-1.4,0.8-2.8,1.6-4.3,2.5V13.6z"/>
	<path class="st0" d="M15.3,16c3.6,2.1,7.1,4.1,10.7,6.2V9.9C22.3,12,18.9,14,15.3,16z M19.6,16c1.4-0.8,2.8-1.6,4.2-2.5
		c0,1.7,0,3.2,0,4.9C22.4,17.6,21,16.9,19.6,16z"/>
	<path class="st0" d="M40.1,18c-3.6,2.1-7.1,4.1-10.6,6.1c3.6,2.1,7.1,4.1,10.6,6.2C40.1,26.2,40.1,22.2,40.1,18z M33.7,24.2
		c1.4-0.8,2.8-1.6,4.2-2.5c0,1.7,0,3.2,0,4.9C36.5,25.8,35.1,25,33.7,24.2z"/>
	<path class="st0" d="M26,26.2c-3.6,2.1-7.1,4.1-10.7,6.2c3.6,2.1,7.1,4.1,10.7,6.2C26,34.4,26,30.3,26,26.2z M23.8,34.8
		c-1.4-0.8-2.8-1.6-4.3-2.5c1.4-0.8,2.8-1.6,4.3-2.5V34.8z"/>
	<path class="st0" d="M28.2,26.2v12.3c3.6-2.1,7.1-4.1,10.7-6.2C35.3,30.3,31.8,28.3,28.2,26.2z M30.4,29.9c1.5,0.8,2.8,1.6,4.3,2.5
		c-1.5,0.9-2.8,1.6-4.3,2.5V29.9z"/>
	<path class="st0" d="M14.1,18.1c0,4.1,0,8.2,0,12.3c3.6-2.1,7.1-4.1,10.6-6.1C21.2,22.2,17.7,20.1,14.1,18.1z M16.3,21.8
		c1.5,0.8,2.8,1.6,4.3,2.5c-1.4,0.8-2.8,1.6-4.3,2.5C16.3,25,16.3,23.4,16.3,21.8z"/>
	<polygon class="st0" points="28.1,24.1 27.6,24.9 26.7,24.9 26.2,24.1 26.7,23.3 27.6,23.3 	"/>
</g>
<g>
	<path class="st0" d="M56,10v12.3c3.6-2.1,7.1-4.1,10.7-6.2C63.1,14,59.6,12,56,10z M58.2,13.7c1.4,0.8,2.8,1.6,4.3,2.5
		c-1.4,0.8-2.8,1.6-4.3,2.5V13.7z"/>
	<path class="st0" d="M43.1,16.1c3.6,2.1,7.1,4.1,10.7,6.2V9.9C50.2,12,46.7,14,43.1,16.1z M47.4,16.1c1.4-0.8,2.7-1.6,4.2-2.4
		c0,1.7,0,3.2,0,4.9C50.2,17.7,48.9,16.9,47.4,16.1z"/>
	<path class="st0" d="M57.2,24.2c3.6,2.1,7.1,4.1,10.7,6.1V18.1C64.3,20.2,60.8,22.2,57.2,24.2z M61.5,24.2c1.4-0.8,2.8-1.6,4.2-2.5
		c0,1.7,0,3.2,0,4.9C64.3,25.8,62.9,25.1,61.5,24.2z"/>
	<path class="st0" d="M43.1,32.4c3.6,2.1,7.1,4.1,10.7,6.2V26.2C50.2,28.3,46.7,30.3,43.1,32.4z M51.7,34.8
		c-1.4-0.8-2.8-1.6-4.3-2.5c1.4-0.8,2.8-1.6,4.3-2.5V34.8z"/>
	<path class="st0" d="M56,26.3c0,4.1,0,8.2,0,12.3c3.6-2.1,7.1-4.1,10.7-6.1C63.1,30.4,59.6,28.3,56,26.3z M58.2,30
		c1.5,0.9,2.8,1.6,4.3,2.5c-1.5,0.8-2.8,1.6-4.3,2.5V30z"/>
	<path class="st0" d="M41.9,18.1c0,4.1,0,8.2,0,12.3c3.6-2.1,7.1-4.1,10.6-6.1C49,22.2,45.5,20.2,41.9,18.1z M44.1,21.8
		c1.5,0.8,2.8,1.6,4.3,2.5c-1.4,0.8-2.8,1.6-4.3,2.5V21.8z"/>
	<polygon class="st0" points="55.9,24.2 55.4,25 54.5,25 54,24.2 54.5,23.4 55.4,23.4 	"/>
</g>
<g>
	<path class="st0" d="M42,34.4v12.3c3.6-2.1,7.1-4.1,10.7-6.2C49.1,38.5,45.6,36.5,42,34.4z M44.2,38.1c1.4,0.8,2.8,1.6,4.3,2.5
		c-1.4,0.8-2.8,1.6-4.3,2.5V38.1z"/>
	<path class="st0" d="M29.1,40.5c3.6,2.1,7.1,4.1,10.6,6.2V34.4C36.2,36.5,32.7,38.5,29.1,40.5z M37.6,43c-1.4-0.8-2.8-1.6-4.2-2.5
		c1.4-0.8,2.8-1.6,4.2-2.4V43z"/>
	<path class="st0" d="M53.9,42.5c-3.6,2.1-7.1,4.1-10.6,6.2c3.6,2.1,7.1,4.1,10.6,6.1C53.9,50.7,53.9,46.7,53.9,42.5z M47.5,48.7
		c1.4-0.8,2.8-1.6,4.2-2.5c0,1.7,0,3.2,0,4.9C50.3,50.3,48.9,49.5,47.5,48.7z"/>
	<path class="st0" d="M39.8,50.7c-3.6,2.1-7.1,4.1-10.7,6.2c3.6,2.1,7.1,4.1,10.7,6.2C39.8,58.9,39.8,54.8,39.8,50.7z M37.6,59.3
		c-1.4-0.8-2.8-1.6-4.3-2.5c1.4-0.8,2.8-1.6,4.3-2.5V59.3z"/>
	<path class="st0" d="M42,50.7c0,4.1,0,8.2,0,12.3c3.6-2.1,7.1-4.1,10.7-6.2C49.1,54.8,45.6,52.8,42,50.7z M44.2,54.4
		c1.5,0.8,2.8,1.6,4.3,2.5c-1.5,0.8-2.8,1.6-4.3,2.5V54.4z"/>
	<path class="st0" d="M27.9,42.6c0,4.1,0,8.2,0,12.3c3.6-2.1,7.1-4.1,10.6-6.1C35,46.6,31.5,44.6,27.9,42.6z M30.1,46.2
		c1.5,0.8,2.8,1.6,4.3,2.5c-1.4,0.8-2.8,1.6-4.3,2.5V46.2z"/>
	<polygon class="st0" points="41.9,48.6 41.4,49.4 40.5,49.4 40,48.6 40.5,47.8 41.4,47.8 	"/>
</g>
<g>
	<path class="st0" d="M14.1,34.2v12.3c3.6-2.1,7.1-4.1,10.7-6.2C21.2,38.3,17.7,36.3,14.1,34.2z M16.3,37.9c1.4,0.8,2.8,1.6,4.3,2.5
		c-1.4,0.8-2.8,1.6-4.2,2.5C16.3,41.2,16.3,39.6,16.3,37.9z"/>
	<path class="st0" d="M1.2,40.3c3.6,2.1,7.1,4.1,10.7,6.2V34.2C8.3,36.3,4.8,38.3,1.2,40.3z M5.5,40.3c1.4-0.8,2.8-1.6,4.2-2.4
		c0,1.7,0,3.2,0,4.9C8.3,41.9,6.9,41.1,5.5,40.3z"/>
	<path class="st0" d="M15.3,48.5c3.6,2.1,7.1,4.1,10.7,6.1V42.3C22.4,44.4,18.9,46.4,15.3,48.5z M19.6,48.5c1.4-0.8,2.8-1.6,4.2-2.5
		c0,1.7,0,3.2,0,4.9C22.4,50.1,21,49.3,19.6,48.5z"/>
	<path class="st0" d="M1.2,56.6c3.6,2.1,7.1,4.1,10.7,6.2V50.5C8.2,52.6,4.8,54.6,1.2,56.6z M9.7,59.1c-1.4-0.8-2.8-1.6-4.3-2.5
		c1.4-0.8,2.8-1.6,4.3-2.5V59.1z"/>
	<path class="st0" d="M14.2,50.5v12.3c3.6-2.1,7.1-4.1,10.6-6.1C21.2,54.6,17.7,52.6,14.2,50.5z M16.3,54.2c1.5,0.9,2.8,1.6,4.3,2.5
		c-1.5,0.8-2.8,1.6-4.3,2.5V54.2z"/>
	<path class="st0" d="M0,42.4c0,4.1,0,8.2,0,12.3c3.6-2.1,7.1-4.1,10.6-6.1C7.1,46.4,3.6,44.4,0,42.4z M2.2,46
		c1.4,0.8,2.8,1.6,4.3,2.5C5,49.3,3.6,50.1,2.2,51V46z"/>
	<polygon class="st0" points="14,48.4 13.5,49.2 12.6,49.2 12.1,48.4 12.6,47.6 13.5,47.6 	"/>
</g>
<g>
	<path class="st0" d="M28.3,58.3v12.3c3.6-2.1,7.1-4.1,10.7-6.2C35.3,62.4,31.8,60.3,28.3,58.3z M30.4,62c1.4,0.8,2.8,1.6,4.3,2.5
		c-1.4,0.8-2.8,1.6-4.3,2.5V62z"/>
	<path class="st0" d="M15.3,64.4c3.6,2.1,7.1,4.1,10.7,6.2V58.2C22.4,60.3,18.9,62.3,15.3,64.4z M23.9,66.8
		c-1.4-0.8-2.8-1.6-4.2-2.4c1.4-0.8,2.8-1.6,4.2-2.4V66.8z"/>
	<path class="st0" d="M40.1,66.4c-3.6,2.1-7.1,4.1-10.6,6.1c3.6,2.1,7.1,4.1,10.7,6.2C40.1,74.6,40.1,70.5,40.1,66.4z M33.7,72.5
		c1.4-0.8,2.8-1.6,4.2-2.5c0,1.7,0,3.2,0,4.9C36.5,74.2,35.2,73.4,33.7,72.5z"/>
	<path class="st0" d="M26,74.5c-3.6,2.1-7.1,4.1-10.7,6.2c3.6,2.1,7.1,4.1,10.7,6.2C26,82.7,26,78.7,26,74.5z M23.9,83.1
		c-1.4-0.8-2.8-1.6-4.3-2.5c1.4-0.8,2.8-1.6,4.3-2.5V83.1z"/>
	<path class="st0" d="M28.3,74.6c0,4.1,0,8.2,0,12.3c3.6-2.1,7.1-4.1,10.7-6.1C35.3,78.7,31.9,76.7,28.3,74.6z M30.4,78.3
		c1.5,0.9,2.8,1.6,4.3,2.5c-1.5,0.8-2.8,1.6-4.3,2.5V78.3z"/>
	<path class="st0" d="M14.2,66.4c0,4.1,0,8.1,0,12.3c3.6-2.1,7.1-4.1,10.6-6.1C21.2,70.5,17.7,68.5,14.2,66.4z M16.3,70.1
		c1.4,0.8,2.8,1.6,4.3,2.5c-1.4,0.8-2.8,1.6-4.3,2.5C16.3,73.3,16.3,71.8,16.3,70.1z"/>
	<polygon class="st0" points="28.1,72.5 27.7,73.3 26.7,73.3 26.3,72.5 26.7,71.7 27.7,71.7 	"/>
</g>
<g>
	<path class="st0" d="M56.1,58.3v12.3c3.6-2.1,7.1-4.1,10.7-6.2C63.2,62.4,59.7,60.4,56.1,58.3z M58.2,62c1.4,0.8,2.8,1.6,4.3,2.5
		c-1.4,0.8-2.8,1.6-4.2,2.5C58.2,65.3,58.2,63.7,58.2,62z"/>
	<path class="st0" d="M43.2,64.4c3.6,2.1,7.1,4.1,10.6,6.1V58.3C50.2,60.4,46.7,62.4,43.2,64.4z M47.4,64.4c1.4-0.8,2.8-1.6,4.2-2.4
		c0,1.7,0,3.2,0,4.9C50.2,66,48.9,65.2,47.4,64.4z"/>
	<path class="st0" d="M57.3,72.6c3.6,2.1,7.1,4.1,10.7,6.2V66.4C64.3,68.5,60.8,70.5,57.3,72.6z M61.5,72.6c1.4-0.8,2.8-1.6,4.2-2.5
		c0,1.7,0,3.2,0,4.9C64.3,74.2,63,73.4,61.5,72.6z"/>
	<path class="st0" d="M43.1,80.7c3.6,2.1,7.1,4.1,10.7,6.2V74.6C50.2,76.7,46.7,78.7,43.1,80.7z M51.7,83.2
		c-1.4-0.8-2.8-1.6-4.3-2.5c1.4-0.8,2.8-1.6,4.3-2.5V83.2z"/>
	<path class="st0" d="M56.1,74.6c0,4.1,0,8.2,0,12.3c3.6-2.1,7.1-4.1,10.6-6.2C63.2,78.7,59.7,76.7,56.1,74.6z M58.2,78.3
		c1.5,0.8,2.8,1.6,4.3,2.5c-1.5,0.8-2.8,1.6-4.3,2.5V78.3z"/>
	<path class="st0" d="M42,66.5c0,4.1,0,8.1,0,12.3c3.6-2.1,7.1-4.1,10.6-6.1C49,70.5,45.5,68.5,42,66.5z M44.1,70.1
		c1.4,0.8,2.8,1.6,4.3,2.5c-1.4,0.8-2.8,1.6-4.3,2.5V70.1z"/>
	<polygon class="st0" points="55.9,72.5 55.5,73.3 54.5,73.3 54.1,72.5 54.5,71.7 55.5,71.7 	"/>
</g>
<g>
	<path class="st0" d="M107.8,0v2.5c-1.5-0.8-2.8-1.6-4.2-2.5h-4.3c3.6,2.1,7.1,4.1,10.7,6.1V0H107.8z"/>
	<path class="st0" d="M85.1,8.2c3.6,2.1,7.1,4.1,10.7,6.2V2C92.2,4.1,88.7,6.1,85.1,8.2z M93.7,10.6c-1.4-0.8-2.8-1.6-4.3-2.5
		c1.4-0.8,2.8-1.6,4.3-2.5V10.6z"/>
	<path class="st0" d="M98,2c0,4.1,0,8.1,0,12.3c3.6-2.1,7.1-4.1,10.7-6.2C105.1,6.1,101.6,4.1,98,2z M100.2,5.7
		c1.5,0.8,2.8,1.6,4.3,2.5c-1.5,0.9-2.8,1.6-4.3,2.5V5.7z"/>
	<path class="st0" d="M94.5,0h-4.2c0,0,0,0,0,0c-1.4,0.8-2.8,1.6-4.3,2.5V0h-2.1c0,2,0,4.1,0,6.2C87.5,4.1,91,2.1,94.5,0
		C94.6,0,94.5,0,94.5,0z"/>
	<polygon class="st0" points="97.9,0 97.4,0.8 96.5,0.8 96.1,0 	"/>
</g>
<g>
	<path class="st0" d="M79.9,0v2.3c-1.3-0.8-2.6-1.5-3.9-2.3h-4.3c3.5,2,6.9,4,10.3,6V0H79.9z"/>
	<path class="st0" d="M57.2,8c3.6,2.1,7.1,4.1,10.7,6.2V1.8C64.3,3.9,60.8,5.9,57.2,8z M65.8,10.4c-1.4-0.8-2.8-1.6-4.3-2.5
		c1.4-0.8,2.8-1.6,4.3-2.5V10.4z"/>
	<path class="st0" d="M70.2,1.8v12.3c3.6-2.1,7.1-4.1,10.7-6.2C77.2,5.9,73.7,3.9,70.2,1.8z M72.3,5.5c1.5,0.8,2.8,1.6,4.3,2.5
		c-1.5,0.8-2.8,1.6-4.3,2.5V5.5z"/>
	<path class="st0" d="M62.2,0c-1.3,0.8-2.6,1.5-4,2.3V0H56v6c3.5-2,6.9-4,10.4-6H62.2z"/>
	<polygon class="st0" points="69.9,0 69.5,0.6 68.6,0.6 68.3,0 	"/>
</g>
<g>
	<path class="st0" d="M84.3,9.6v12.3c3.6-2.1,7.1-4.1,10.7-6.2C91.3,13.7,87.9,11.7,84.3,9.6z M86.4,13.3c1.4,0.8,2.8,1.6,4.3,2.5
		c-1.4,0.8-2.8,1.6-4.3,2.5V13.3z"/>
	<path class="st0" d="M71.3,15.7c3.6,2.1,7.1,4.1,10.6,6.2V9.6C78.4,11.6,74.9,13.7,71.3,15.7z M79.9,18.1c-1.4-0.8-2.8-1.6-4.2-2.5
		c1.4-0.8,2.8-1.6,4.2-2.4V18.1z"/>
	<path class="st0" d="M96.1,17.7c-3.6,2.1-7.1,4.1-10.6,6.2C89,25.9,92.5,28,96.1,30C96.1,25.9,96.1,21.9,96.1,17.7z M89.7,23.9
		c1.4-0.8,2.8-1.6,4.2-2.5c0,1.7,0,3.2,0,4.9C92.5,25.5,91.2,24.7,89.7,23.9z"/>
	<path class="st0" d="M82,25.9c-3.6,2.1-7.1,4.1-10.7,6.2c3.6,2.1,7.1,4.1,10.7,6.2C82,34,82,30,82,25.9z M79.9,34.5
		c-1.4-0.8-2.8-1.6-4.3-2.5c1.4-0.8,2.8-1.6,4.3-2.5V34.5z"/>
	<path class="st0" d="M84.3,25.9c0,4.1,0,8.2,0,12.3c3.6-2.1,7.1-4.1,10.6-6.2C91.3,30,87.9,28,84.3,25.9z M86.4,29.6
		c1.5,0.8,2.8,1.6,4.3,2.5c-1.5,0.8-2.8,1.6-4.3,2.5V29.6z"/>
	<path class="st0" d="M70.2,17.8c0,4.1,0,8.2,0,12.3c3.6-2.1,7.1-4.1,10.6-6.1C77.2,21.8,73.7,19.8,70.2,17.8z M72.3,21.4
		c1.5,0.8,2.8,1.6,4.3,2.5c-1.4,0.8-2.8,1.6-4.3,2.5V21.4z"/>
	<polygon class="st0" points="84.1,23.8 83.7,24.6 82.7,24.6 82.3,23.8 82.7,23 83.7,23 	"/>
</g>
<g>
	<path class="st0" d="M112.1,9.6V22c3.6-2.1,7.1-4.1,10.7-6.2C119.2,13.7,115.7,11.7,112.1,9.6z M114.2,13.4
		c1.4,0.8,2.8,1.6,4.3,2.5c-1.4,0.8-2.8,1.6-4.2,2.5C114.2,16.6,114.2,15,114.2,13.4z"/>
	<path class="st0" d="M99.2,15.8c3.6,2.1,7.1,4.1,10.7,6.1V9.6C106.2,11.7,102.7,13.7,99.2,15.8z M103.5,15.7
		c1.4-0.8,2.8-1.6,4.2-2.5c0,1.7,0,3.2,0,4.9C106.2,17.3,104.9,16.6,103.5,15.7z"/>
	<path class="st0" d="M113.3,23.9c3.6,2.1,7.1,4.1,10.6,6.2V17.8C120.3,19.8,116.8,21.9,113.3,23.9z M117.5,23.9
		c1.4-0.8,2.8-1.6,4.2-2.5c0,1.7,0,3.2,0,4.9C120.4,25.5,119,24.7,117.5,23.9z"/>
	<path class="st0" d="M99.1,32.1c3.6,2.1,7.1,4.1,10.7,6.2V25.9C106.2,28,102.7,30,99.1,32.1z M107.7,34.5c-1.4-0.8-2.8-1.6-4.3-2.5
		c1.4-0.8,2.8-1.6,4.3-2.5V34.5z"/>
	<path class="st0" d="M112.1,25.9v12.3c3.6-2.1,7.1-4.1,10.6-6.2C119.2,30,115.7,28,112.1,25.9z M114.2,29.6
		c1.5,0.9,2.8,1.6,4.3,2.5c-1.5,0.8-2.8,1.6-4.3,2.5V29.6z"/>
	<path class="st0" d="M98,17.8c0,4.1,0,8.2,0,12.3c3.6-2.1,7.1-4.1,10.6-6.1C105,21.9,101.5,19.9,98,17.8z M100.1,21.5
		c1.5,0.8,2.8,1.6,4.3,2.5c-1.4,0.8-2.8,1.6-4.3,2.5V21.5z"/>
	<polygon class="st0" points="112,23.8 111.5,24.7 110.5,24.7 110.1,23.8 110.5,23 111.5,23 	"/>
</g>
<g>
	<path class="st0" d="M98.1,34.1v12.3c3.6-2.1,7.1-4.1,10.7-6.2C105.2,38.2,101.7,36.1,98.1,34.1z M100.2,37.8
		c1.4,0.8,2.8,1.6,4.3,2.5c-1.4,0.8-2.8,1.6-4.3,2.5V37.8z"/>
	<path class="st0" d="M85.2,40.2c3.6,2.1,7.1,4.1,10.6,6.2V34C92.2,36.1,88.7,38.1,85.2,40.2z M89.4,40.2c1.4-0.8,2.7-1.6,4.2-2.4
		c0,1.7,0,3.2,0,4.9C92.2,41.8,90.9,41,89.4,40.2z"/>
	<path class="st0" d="M99.3,48.3c3.6,2.1,7.1,4.1,10.7,6.2V42.2C106.3,44.3,102.8,46.3,99.3,48.3z M103.5,48.3
		c1.4-0.8,2.8-1.6,4.2-2.5c0,1.7,0,3.2,0,4.9C106.3,50,105,49.2,103.5,48.3z"/>
	<path class="st0" d="M85.1,56.5c3.6,2.1,7.1,4.1,10.7,6.2V50.3C92.2,52.4,88.7,54.4,85.1,56.5z M93.7,58.9
		c-1.4-0.8-2.8-1.6-4.3-2.5c1.4-0.8,2.8-1.6,4.3-2.5V58.9z"/>
	<path class="st0" d="M98.1,50.4c0,4.1,0,8.2,0,12.3c3.6-2.1,7.1-4.1,10.6-6.1C105.2,54.5,101.7,52.5,98.1,50.4z M100.2,54.1
		c1.5,0.8,2.8,1.6,4.3,2.5c-1.5,0.8-2.8,1.6-4.3,2.5V54.1z"/>
	<path class="st0" d="M84,42.2c0,4.1,0,8.1,0,12.3c3.6-2.1,7.1-4.1,10.6-6.1C91,46.3,87.5,44.3,84,42.2z M86.1,45.9
		c1.4,0.8,2.8,1.6,4.3,2.5c-1.4,0.8-2.8,1.6-4.3,2.5V45.9z"/>
	<polygon class="st0" points="97.9,48.3 97.5,49.1 96.5,49.1 96.1,48.3 96.5,47.5 97.5,47.5 	"/>
</g>
<g>
	<path class="st0" d="M70.2,33.9v12.3c3.6-2.1,7.1-4.1,10.7-6.2C77.3,38,73.8,35.9,70.2,33.9z M72.3,37.6c1.4,0.8,2.8,1.6,4.3,2.5
		c-1.4,0.8-2.8,1.6-4.2,2.5C72.3,40.8,72.3,39.3,72.3,37.6z"/>
	<path class="st0" d="M57.2,40c3.6,2.1,7.1,4.1,10.7,6.1V33.8C64.3,35.9,60.8,37.9,57.2,40z M61.5,40c1.4-0.8,2.8-1.6,4.2-2.5
		c0,1.7,0,3.2,0,4.9C64.3,41.6,63,40.8,61.5,40z"/>
	<path class="st0" d="M71.4,48.1c3.6,2.1,7.1,4.1,10.7,6.2V42C78.4,44.1,74.9,46.1,71.4,48.1z M75.6,48.1c1.4-0.8,2.8-1.6,4.2-2.5
		c0,1.7,0,3.2,0,4.9C78.4,49.8,77.1,49,75.6,48.1z"/>
	<path class="st0" d="M57.2,56.3c3.6,2.1,7.1,4.1,10.7,6.2V50.1C64.3,52.2,60.8,54.2,57.2,56.3z M65.8,58.8
		c-1.4-0.8-2.8-1.6-4.3-2.5c1.4-0.8,2.8-1.6,4.3-2.5V58.8z"/>
	<path class="st0" d="M70.2,50.2v12.3c3.6-2.1,7.1-4.1,10.7-6.2C77.2,54.3,73.8,52.3,70.2,50.2z M72.3,53.9c1.5,0.9,2.8,1.6,4.3,2.5
		c-1.5,0.8-2.8,1.6-4.3,2.5V53.9z"/>
	<path class="st0" d="M56.1,42v12.3c3.6-2.1,7.1-4.1,10.6-6.1C63.1,46.1,59.7,44.1,56.1,42z M58.2,45.7c1.5,0.8,2.8,1.6,4.3,2.5
		c-1.4,0.8-2.8,1.6-4.3,2.5V45.7z"/>
	<polygon class="st0" points="70,48.1 69.6,48.9 68.7,48.9 68.2,48.1 68.7,47.3 69.6,47.3 	"/>
</g>
<g>
	<path class="st0" d="M84.3,57.9v12.3c3.6-2.1,7.1-4.1,10.7-6.2C91.4,62,87.9,60,84.3,57.9z M86.4,61.7c1.4,0.8,2.8,1.6,4.3,2.5
		c-1.4,0.8-2.8,1.6-4.3,2.5V61.7z"/>
	<path class="st0" d="M71.4,64.1c3.6,2.1,7.1,4.1,10.7,6.1V57.9C78.4,60,74.9,62,71.4,64.1z M75.7,64c1.4-0.8,2.8-1.6,4.2-2.5
		c0,1.7,0,3.2,0,4.9C78.5,65.7,77.1,64.9,75.7,64z"/>
	<path class="st0" d="M96.1,66.1c-3.6,2.1-7.1,4.1-10.6,6.1c3.6,2.1,7.1,4.1,10.7,6.2C96.1,74.2,96.1,70.2,96.1,66.1z M89.8,72.2
		c1.4-0.8,2.8-1.6,4.2-2.5c0,1.7,0,3.2,0,4.9C92.5,73.8,91.2,73,89.8,72.2z"/>
	<path class="st0" d="M71.3,80.4c3.6,2.1,7.1,4.1,10.7,6.2V74.2C78.4,76.3,74.9,78.3,71.3,80.4z M79.9,82.8
		c-1.4-0.8-2.8-1.6-4.3-2.5c1.4-0.8,2.8-1.6,4.3-2.5V82.8z"/>
	<path class="st0" d="M84.3,74.3c0,4.1,0,8.2,0,12.3c3.6-2.1,7.1-4.1,10.7-6.2C91.4,78.3,87.9,76.3,84.3,74.3z M86.4,77.9
		c1.5,0.8,2.8,1.6,4.3,2.5c-1.5,0.8-2.8,1.6-4.3,2.5C86.4,81.2,86.4,79.6,86.4,77.9z"/>
	<path class="st0" d="M70.2,66.1c0,4.1,0,8.2,0,12.3c3.6-2.1,7.1-4.1,10.6-6.1C77.2,70.2,73.8,68.2,70.2,66.1z M72.3,69.8
		c1.5,0.8,2.8,1.6,4.3,2.5c-1.4,0.8-2.8,1.6-4.3,2.5V69.8z"/>
	<polygon class="st0" points="84.2,72.2 83.7,73 82.8,73 82.3,72.2 82.8,71.4 83.7,71.4 	"/>
</g>
<g>
	<path class="st0" d="M112.1,58v12.3c3.6-2.1,7.1-4.1,10.7-6.2C119.2,62.1,115.7,60,112.1,58z M114.2,61.7c1.4,0.8,2.8,1.6,4.3,2.5
		c-1.4,0.8-2.8,1.6-4.2,2.5C114.2,64.9,114.2,63.4,114.2,61.7z"/>
	<path class="st0" d="M99.2,64.1c3.6,2.1,7.1,4.1,10.7,6.2V57.9C106.2,60,102.8,62,99.2,64.1z M103.5,64.1c1.4-0.8,2.8-1.6,4.2-2.4
		c0,1.7,0,3.2,0,4.9C106.3,65.7,104.9,64.9,103.5,64.1z"/>
	<path class="st0" d="M113.3,72.2c3.6,2.1,7.1,4.1,10.7,6.1V66.1C120.3,68.2,116.9,70.2,113.3,72.2z M117.6,72.2
		c1.4-0.8,2.8-1.6,4.2-2.5c0,1.7,0,3.2,0,4.9C120.4,73.9,119,73.1,117.6,72.2z"/>
	<path class="st0" d="M99.2,80.4c3.6,2.1,7.1,4.1,10.7,6.2V74.2C106.2,76.3,102.8,78.3,99.2,80.4z M107.7,82.8
		c-1.4-0.8-2.8-1.6-4.3-2.5c1.4-0.8,2.8-1.6,4.3-2.5V82.8z"/>
	<path class="st0" d="M112.1,74.3v12.3c3.6-2.1,7.1-4.1,10.7-6.2C119.2,78.4,115.7,76.4,112.1,74.3z M114.3,78
		c1.5,0.8,2.8,1.6,4.3,2.5c-1.5,0.9-2.8,1.6-4.3,2.5V78z"/>
	<path class="st0" d="M98,66.1c0,4.1,0,8.2,0,12.3c3.6-2.1,7.1-4.1,10.6-6.1C105.1,70.2,101.6,68.2,98,66.1z M100.2,69.8
		c1.5,0.8,2.8,1.6,4.3,2.5c-1.4,0.8-2.8,1.6-4.3,2.5V69.8z"/>
	<polygon class="st0" points="112,72.2 111.5,73 110.6,73 110.1,72.2 110.6,71.4 111.5,71.4 	"/>
</g>
<g>
	<path class="st0" d="M42.1,82.6v12.3c3.6-2.1,7.1-4.1,10.7-6.2C49.2,86.7,45.7,84.7,42.1,82.6z M44.2,86.3c1.4,0.8,2.8,1.6,4.3,2.5
		c-1.4,0.8-2.8,1.6-4.3,2.5V86.3z"/>
	<path class="st0" d="M29.2,88.7c3.6,2.1,7.1,4.1,10.7,6.2V82.5C36.2,84.6,32.8,86.6,29.2,88.7z M37.7,91.1
		c-1.4-0.8-2.8-1.6-4.2-2.4c1.4-0.8,2.8-1.6,4.2-2.5V91.1z"/>
	<path class="st0" d="M54,90.7c-3.6,2.1-7.1,4.1-10.6,6.2c3.6,2.1,7.1,4.1,10.7,6.1C54,98.9,54,94.9,54,90.7z M47.6,96.9
		c1.4-0.8,2.8-1.6,4.2-2.5c0,1.7,0,3.2,0,4.9C50.4,98.5,49,97.7,47.6,96.9z"/>
	<path class="st0" d="M39.8,98.8c-3.6,2.1-7.1,4.1-10.7,6.2c3.6,2.1,7.1,4.1,10.7,6.2C39.9,107,39.9,103,39.8,98.8z M37.7,107.5
		c-1.4-0.8-2.8-1.6-4.3-2.5c1.4-0.8,2.8-1.6,4.3-2.5V107.5z"/>
	<path class="st0" d="M42.1,98.9c0,4.1,0,8.2,0,12.3c3.6-2.1,7.1-4.1,10.7-6.2C49.2,103,45.7,101,42.1,98.9z M44.2,102.6
		c1.5,0.8,2.8,1.6,4.3,2.5c-1.5,0.8-2.8,1.6-4.3,2.5V102.6z"/>
	<path class="st0" d="M28,90.8c0,4.1,0,8.2,0,12.3c3.6-2.1,7.1-4.1,10.6-6.1C35.1,94.8,31.6,92.8,28,90.8z M30.2,94.4
		c1.5,0.8,2.8,1.6,4.3,2.5c-1.4,0.8-2.8,1.6-4.3,2.5V94.4z"/>
	<polygon class="st0" points="42,96.8 41.5,97.6 40.6,97.6 40.1,96.8 40.6,96 41.5,96 	"/>
</g>
<g>
	<path class="st0" d="M14.2,82.4v12.3c3.6-2.1,7.1-4.1,10.7-6.2C21.3,86.5,17.8,84.5,14.2,82.4z M16.4,86.1c1.4,0.8,2.8,1.6,4.3,2.5
		c-1.4,0.8-2.8,1.6-4.2,2.5C16.4,89.4,16.4,87.8,16.4,86.1z"/>
	<path class="st0" d="M1.3,88.5c3.6,2.1,7.1,4.1,10.7,6.2V82.4C8.3,84.4,4.9,86.4,1.3,88.5z M5.6,88.5C7,87.7,8.3,86.9,9.8,86
		c0,1.7,0,3.2,0,4.9C8.4,90.1,7,89.3,5.6,88.5z"/>
	<path class="st0" d="M15.4,96.7c3.6,2.1,7.1,4.1,10.6,6.2V90.5C22.4,92.6,19,94.6,15.4,96.7z M19.7,96.7c1.4-0.8,2.8-1.6,4.2-2.5
		c0,1.7,0,3.2,0,4.9C22.5,98.3,21.1,97.5,19.7,96.7z"/>
	<path class="st0" d="M1.3,104.8c3.6,2.1,7.1,4.1,10.7,6.2V98.6C8.3,100.7,4.9,102.8,1.3,104.8z M9.8,107.3
		c-1.4-0.8-2.8-1.6-4.3-2.5c1.4-0.8,2.8-1.6,4.3-2.5V107.3z"/>
	<path class="st0" d="M14.2,98.7c0,4.1,0,8.2,0,12.3c3.6-2.1,7.1-4.1,10.6-6.1C21.3,102.8,17.8,100.8,14.2,98.7z M16.4,102.4
		c1.5,0.9,2.8,1.6,4.3,2.5c-1.5,0.8-2.8,1.6-4.3,2.5V102.4z"/>
	<path class="st0" d="M0.1,90.6c0,4.1,0,8.1,0,12.3c3.6-2.1,7.1-4.1,10.6-6.1C7.2,94.6,3.7,92.6,0.1,90.6z M2.2,94.2
		c1.5,0.8,2.8,1.6,4.3,2.5c-1.4,0.8-2.8,1.6-4.3,2.5V94.2z"/>
	<polygon class="st0" points="14.1,96.6 13.6,97.4 12.7,97.4 12.2,96.6 12.7,95.8 13.6,95.8 	"/>
</g>
<g>
	<path class="st0" d="M28.3,106.4v12.3c3.6-2.1,7.1-4.1,10.7-6.2C35.4,110.5,31.9,108.5,28.3,106.4z M30.5,110.2
		c1.4,0.8,2.8,1.6,4.3,2.5c-1.4,0.8-2.8,1.6-4.3,2.5V110.2z"/>
	<path class="st0" d="M15.4,112.6c3.6,2.1,7.1,4.1,10.6,6.2v-12.3C22.5,108.5,19,110.5,15.4,112.6z M19.7,112.6
		c1.4-0.8,2.8-1.6,4.2-2.5c0,1.7,0,3.2,0,4.9C22.5,114.2,21.1,113.4,19.7,112.6z"/>
	<path class="st0" d="M40.2,114.6c-3.6,2.1-7.1,4.1-10.6,6.2c3.6,2.1,7.1,4.1,10.6,6.2C40.2,122.8,40.2,118.7,40.2,114.6z
		 M33.8,120.7c1.4-0.8,2.8-1.6,4.2-2.5c0,1.7,0,3.2,0,4.9C36.6,122.3,35.2,121.5,33.8,120.7z"/>
	<path class="st0" d="M26.1,122.7c-3.6,2.1-7.1,4.1-10.7,6.2c3.6,2.1,7.1,4.1,10.7,6.2C26.1,130.9,26.1,126.9,26.1,122.7z
		 M19.7,128.9c1.4-0.8,2.8-1.6,4.2-2.5c0,1.7,0,3.3,0,4.9C22.5,130.5,21.2,129.7,19.7,128.9z"/>
	<path class="st0" d="M28.3,122.8v12.3c3.6-2.1,7.1-4.1,10.7-6.1C35.4,126.8,31.9,124.8,28.3,122.8z M30.5,126.4
		c1.5,0.9,2.8,1.6,4.3,2.5c-1.5,0.8-2.8,1.6-4.3,2.5V126.4z"/>
	<path class="st0" d="M14.2,114.6c0,4.1,0,8.1,0,12.3c3.6-2.1,7.1-4.1,10.6-6.1C21.3,118.7,17.8,116.7,14.2,114.6z M16.4,118.3
		c1.5,0.8,2.8,1.6,4.3,2.5c-1.4,0.8-2.8,1.6-4.3,2.5C16.4,121.5,16.4,120,16.4,118.3z"/>
	<polygon class="st0" points="28.2,120.7 27.7,121.5 26.8,121.5 26.3,120.7 26.8,119.9 27.7,119.9 	"/>
</g>
<g>
	<path class="st0" d="M56.2,106.5v12.3c3.6-2.1,7.1-4.1,10.7-6.2C63.2,110.6,59.8,108.6,56.2,106.5z M58.3,110.2
		c1.4,0.8,2.8,1.6,4.3,2.5c-1.4,0.8-2.8,1.6-4.3,2.5V110.2z"/>
	<path class="st0" d="M43.2,112.6c3.6,2.1,7.1,4.1,10.6,6.1v-12.3C50.3,108.5,46.8,110.5,43.2,112.6z M47.5,112.6
		c1.4-0.8,2.7-1.6,4.2-2.4c0,1.7,0,3.2,0,4.9C50.3,114.2,49,113.4,47.5,112.6z"/>
	<path class="st0" d="M57.4,120.8c3.6,2.1,7.1,4.1,10.6,6.2v-12.3C64.4,116.7,60.9,118.7,57.4,120.8z M61.6,120.8
		c1.4-0.8,2.8-1.6,4.2-2.5c0,1.7,0,3.2,0,4.9C64.4,122.4,63,121.6,61.6,120.8z"/>
	<path class="st0" d="M43.2,128.9c3.6,2.1,7.1,4.1,10.7,6.2v-12.3C50.3,124.8,46.8,126.8,43.2,128.9z M51.8,131.4
		c-1.4-0.8-2.8-1.6-4.3-2.5c1.4-0.8,2.8-1.6,4.3-2.5V131.4z"/>
	<path class="st0" d="M56.2,122.8c0,4.1,0,8.2,0,12.3c3.6-2.1,7.1-4.1,10.6-6.2C63.2,126.9,59.8,124.9,56.2,122.8z M58.3,126.5
		c1.5,0.8,2.8,1.6,4.3,2.5c-1.5,0.8-2.8,1.6-4.3,2.5V126.5z"/>
	<path class="st0" d="M42,114.7c0,4.1,0,8.2,0,12.3c3.6-2.1,7.1-4.1,10.6-6.1C49.1,118.7,45.6,116.7,42,114.7z M44.2,118.3
		c1.5,0.8,2.8,1.6,4.3,2.5c-1.4,0.8-2.8,1.6-4.3,2.5V118.3z"/>
	<polygon class="st0" points="56,120.7 55.5,121.5 54.6,121.5 54.2,120.7 54.6,119.9 55.5,119.9 	"/>
</g>
<g>
	<path class="st0" d="M42.2,130.9v12.3c3.6-2.1,7.1-4.1,10.7-6.2C49.2,135,45.7,133,42.2,130.9z M44.3,134.7
		c1.4,0.8,2.8,1.6,4.3,2.5c-1.4,0.8-2.8,1.6-4.3,2.5V134.7z"/>
	<path class="st0" d="M29.2,137c3.6,2.1,7.1,4.1,10.6,6.1v-12.3C36.3,133,32.8,135,29.2,137z M37.7,139.5c-1.4-0.8-2.8-1.6-4.2-2.5
		c1.4-0.8,2.8-1.6,4.2-2.5V139.5z"/>
	<path class="st0" d="M54,139.1c-3.6,2.1-7.1,4.1-10.6,6.1c3.6,2.1,7.1,4.1,10.6,6.2C54,147.2,54,143.2,54,139.1z M47.6,145.2
		c1.4-0.8,2.8-1.6,4.2-2.4c0,1.7,0,3.2,0,4.9C50.4,146.8,49,146,47.6,145.2z"/>
	<path class="st0" d="M39.9,147.2c-3.6,2.1-7.1,4.1-10.7,6.2c3.6,2.1,7.1,4.1,10.7,6.2C39.9,155.4,39.9,151.3,39.9,147.2z
		 M37.8,155.8c-1.4-0.8-2.8-1.6-4.3-2.5c1.4-0.8,2.8-1.6,4.3-2.5V155.8z"/>
	<path class="st0" d="M42.2,147.2c0,4.1,0,8.1,0,12.3c3.6-2.1,7.1-4.1,10.6-6.2C49.2,151.3,45.7,149.3,42.2,147.2z M44.3,150.9
		c1.5,0.8,2.8,1.6,4.3,2.5c-1.5,0.9-2.8,1.6-4.3,2.5V150.9z"/>
	<path class="st0" d="M28,139.1c0,4.1,0,8.2,0,12.3c3.6-2.1,7.1-4.1,10.6-6.1C35.1,143.2,31.6,141.2,28,139.1z M30.2,142.8
		c1.5,0.8,2.8,1.6,4.3,2.5c-1.4,0.8-2.8,1.6-4.3,2.5V142.8z"/>
	<polygon class="st0" points="42,145.1 41.5,146 40.6,146 40.2,145.1 40.6,144.3 41.5,144.3 	"/>
</g>
<g>
	<path class="st0" d="M14.2,130.7v12.3c3.6-2.1,7.1-4.1,10.7-6.2C21.3,134.8,17.8,132.8,14.2,130.7z M16.4,134.5
		c1.4,0.8,2.8,1.6,4.3,2.5c-1.4,0.8-2.8,1.6-4.2,2.5C16.4,137.7,16.4,136.1,16.4,134.5z"/>
	<path class="st0" d="M1.3,136.9c3.6,2.1,7.1,4.1,10.7,6.1v-12.3C8.4,132.8,4.9,134.8,1.3,136.9z M5.6,136.8
		c1.4-0.8,2.8-1.6,4.2-2.4c0,1.7,0,3.2,0,4.9C8.4,138.5,7,137.7,5.6,136.8z"/>
	<path class="st0" d="M15.4,145c3.6,2.1,7.1,4.1,10.7,6.2v-12.3C22.5,140.9,19,143,15.4,145z M19.7,145c1.4-0.8,2.8-1.6,4.2-2.5
		c0,1.7,0,3.2,0,4.9C22.5,146.6,21.2,145.8,19.7,145z"/>
	<path class="st0" d="M1.3,153.2c3.6,2.1,7.1,4.1,10.7,6.2V147C8.4,149.1,4.9,151.1,1.3,153.2z M9.9,155.6c-1.4-0.8-2.8-1.6-4.3-2.5
		c1.4-0.8,2.8-1.6,4.3-2.5V155.6z"/>
	<path class="st0" d="M14.3,147v12.3c3.6-2.1,7.1-4.1,10.7-6.2C21.3,151.1,17.8,149.1,14.3,147z M16.4,150.7
		c1.5,0.8,2.8,1.6,4.3,2.5c-1.5,0.8-2.8,1.6-4.3,2.5V150.7z"/>
	<path class="st0" d="M0.1,138.9c0,4.1,0,8.2,0,12.3c3.6-2.1,7.1-4.1,10.6-6.1C7.2,143,3.7,141,0.1,138.9z M2.3,142.6
		c1.5,0.8,2.8,1.6,4.3,2.5c-1.4,0.8-2.8,1.6-4.3,2.5V142.6z"/>
	<polygon class="st0" points="14.1,145 13.6,145.8 12.7,145.8 12.2,145 12.7,144.1 13.6,144.1 	"/>
</g>
<g>
	<path class="st0" d="M28.4,154.8v10.9h2.5c2.7-1.6,5.4-3.1,8.2-4.7C35.4,158.9,32,156.9,28.4,154.8z M30.5,163.4v-4.9
		c1.4,0.8,2.8,1.6,4.3,2.5C33.3,161.8,32,162.6,30.5,163.4z"/>
	<path class="st0" d="M15.4,160.9c2.8,1.6,5.5,3.2,8.2,4.8h2.4v-10.9C22.5,156.8,19,158.9,15.4,160.9z M19.7,160.9
		c1.4-0.8,2.8-1.6,4.2-2.4c0,1.7,0,3.2,0,4.9C22.5,162.5,21.2,161.7,19.7,160.9z"/>
	<path class="st0" d="M35.4,165.7h4.8v-2.8C38.6,163.8,37,164.8,35.4,165.7z"/>
	<path class="st0" d="M14.3,163v2.7H19C17.4,164.8,15.8,163.9,14.3,163z"/>
</g>
<g>
	<path class="st0" d="M56.2,154.8v10.9h2.6c2.7-1.6,5.4-3.1,8.1-4.7C63.3,158.9,59.8,156.9,56.2,154.8z M58.3,163.5
		c0-1.7,0-3.2,0-4.9c1.4,0.8,2.8,1.6,4.3,2.5C61.2,161.8,59.8,162.6,58.3,163.5z"/>
	<path class="st0" d="M43.3,160.9c2.8,1.6,5.5,3.2,8.2,4.7h2.5v-10.9C50.3,156.9,46.8,158.9,43.3,160.9z M47.5,160.9
		c1.4-0.8,2.7-1.6,4.2-2.5c0,1.7,0,3.2,0,4.9C50.3,162.5,49,161.8,47.5,160.9z"/>
	<path class="st0" d="M63.3,165.7H68V163C66.4,163.9,64.9,164.8,63.3,165.7z"/>
	<path class="st0" d="M42.1,163v2.7h4.6C45.2,164.8,43.6,163.9,42.1,163z"/>
</g>
<g>
	<path class="st0" d="M98.2,82.3v12.3c3.6-2.1,7.1-4.1,10.7-6.2C105.2,86.3,101.8,84.3,98.2,82.3z M100.3,86
		c1.4,0.8,2.8,1.6,4.3,2.5c-1.4,0.8-2.8,1.6-4.3,2.4V86z"/>
	<path class="st0" d="M85.2,88.4c3.6,2.1,7.1,4.1,10.6,6.2V82.2C92.3,84.3,88.8,86.3,85.2,88.4z M89.5,88.4c1.4-0.8,2.7-1.6,4.2-2.4
		c0,1.7,0,3.2,0,4.9C92.3,90,91,89.2,89.5,88.4z"/>
	<path class="st0" d="M110,90.4c-3.6,2.1-7.1,4.1-10.6,6.2c3.6,2.1,7.1,4.1,10.6,6.2C110,98.5,110,94.5,110,90.4z M103.6,96.5
		c1.4-0.8,2.8-1.6,4.2-2.5c0,1.7,0,3.2,0,4.9C106.4,98.1,105,97.4,103.6,96.5z"/>
	<path class="st0" d="M85.2,104.7c3.6,2.1,7.1,4.1,10.7,6.2V98.5C92.3,100.6,88.8,102.6,85.2,104.7z M93.8,107.1
		c-1.4-0.8-2.8-1.6-4.3-2.5c1.4-0.8,2.8-1.6,4.3-2.5V107.1z"/>
	<path class="st0" d="M98.2,98.6c0,4.1,0,8.2,0,12.3c3.6-2.1,7.1-4.1,10.6-6.1C105.2,102.6,101.8,100.6,98.2,98.6z M100.3,102.3
		c1.5,0.8,2.8,1.6,4.3,2.5c-1.5,0.8-2.8,1.6-4.3,2.5C100.3,105.5,100.3,103.9,100.3,102.3z"/>
	<path class="st0" d="M84,90.4c0,4.1,0,8.1,0,12.3c3.6-2.1,7.1-4.1,10.6-6.1C91.1,94.5,87.6,92.5,84,90.4z M86.2,94.1
		c1.5,0.8,2.8,1.6,4.3,2.5c-1.4,0.8-2.8,1.6-4.3,2.5V94.1z"/>
	<polygon class="st0" points="98,96.5 97.5,97.3 96.6,97.3 96.2,96.5 96.6,95.7 97.5,95.7 	"/>
</g>
<g>
	<path class="st0" d="M70.3,82.1v12.3c3.6-2.1,7.1-4.1,10.7-6.2C77.3,86.1,73.9,84.1,70.3,82.1z M72.4,85.8c1.4,0.8,2.8,1.6,4.3,2.5
		c-1.4,0.8-2.8,1.6-4.2,2.5C72.4,89,72.4,87.5,72.4,85.8z"/>
	<path class="st0" d="M57.3,88.2c3.6,2.1,7.1,4.1,10.7,6.1V82C64.4,84.1,60.9,86.1,57.3,88.2z M61.6,88.2c1.4-0.8,2.8-1.6,4.2-2.5
		c0,1.7,0,3.2,0,4.9C64.4,89.8,63.1,89,61.6,88.2z"/>
	<path class="st0" d="M71.5,96.3c3.6,2.1,7.1,4.1,10.7,6.2V90.2C78.5,92.3,75,94.3,71.5,96.3z M75.7,96.3c1.4-0.8,2.8-1.6,4.2-2.5
		c0,1.7,0,3.2,0,4.9C78.5,97.9,77.2,97.2,75.7,96.3z"/>
	<path class="st0" d="M57.3,104.5c3.6,2.1,7.1,4.1,10.7,6.2V98.3C64.4,100.4,60.9,102.4,57.3,104.5z M65.9,106.9
		c-1.4-0.8-2.8-1.6-4.3-2.5c1.4-0.8,2.8-1.6,4.3-2.5V106.9z"/>
	<path class="st0" d="M70.3,98.4v12.3c3.6-2.1,7.1-4.1,10.7-6.2C77.3,102.5,73.9,100.4,70.3,98.4z M72.4,102.1
		c1.5,0.8,2.8,1.6,4.3,2.5c-1.5,0.8-2.8,1.6-4.3,2.5V102.1z"/>
	<path class="st0" d="M56.2,90.2v12.3c3.6-2.1,7.1-4.1,10.6-6.1C63.2,94.3,59.7,92.3,56.2,90.2z M58.3,93.9c1.5,0.8,2.8,1.6,4.3,2.5
		c-1.4,0.8-2.8,1.6-4.3,2.5V93.9z"/>
	<polygon class="st0" points="70.1,96.3 69.7,97.1 68.7,97.1 68.3,96.3 68.7,95.5 69.7,95.5 	"/>
</g>
<g>
	<path class="st0" d="M84.4,106.1v12.3c3.6-2.1,7.1-4.1,10.7-6.2C91.5,110.2,88,108.2,84.4,106.1z M86.5,109.8
		c1.4,0.8,2.8,1.6,4.3,2.5c-1.4,0.8-2.8,1.6-4.3,2.5V109.8z"/>
	<path class="st0" d="M71.5,112.2c3.6,2.1,7.1,4.1,10.7,6.1v-12.3C78.5,108.2,75,110.2,71.5,112.2z M80,114.7
		c-1.4-0.8-2.8-1.6-4.2-2.4c1.4-0.8,2.8-1.6,4.2-2.5V114.7z"/>
	<path class="st0" d="M96.2,114.2c-3.6,2.1-7.1,4.1-10.6,6.1c3.6,2.1,7.1,4.1,10.7,6.2C96.2,122.4,96.2,118.4,96.2,114.2z
		 M89.8,120.4c1.4-0.8,2.8-1.6,4.2-2.4c0,1.7,0,3.2,0,4.9C92.6,122,91.3,121.2,89.8,120.4z"/>
	<path class="st0" d="M82.1,122.4c-3.6,2.1-7.1,4.1-10.7,6.2c3.6,2.1,7.1,4.1,10.7,6.2C82.1,130.6,82.1,126.5,82.1,122.4z M80,131
		c-1.4-0.8-2.8-1.6-4.3-2.5c1.4-0.8,2.8-1.6,4.3-2.5V131z"/>
	<path class="st0" d="M84.4,122.4c0,4.1,0,8.1,0,12.3c3.6-2.1,7.1-4.1,10.7-6.2C91.5,126.5,88,124.5,84.4,122.4z M86.5,126.1
		c1.5,0.8,2.8,1.6,4.3,2.5c-1.5,0.9-2.8,1.6-4.3,2.5V126.1z"/>
	<path class="st0" d="M70.3,114.3c0,4.1,0,8.2,0,12.3c3.6-2.1,7.1-4.1,10.6-6.1C77.3,118.4,73.8,116.3,70.3,114.3z M72.4,118
		c1.5,0.8,2.8,1.6,4.3,2.5c-1.4,0.8-2.8,1.6-4.3,2.5V118z"/>
	<polygon class="st0" points="84.2,120.3 83.8,121.1 82.8,121.1 82.4,120.3 82.8,119.5 83.8,119.5 	"/>
</g>
<g>
	<path class="st0" d="M112.2,106.2v12.3c3.6-2.1,7.1-4.1,10.7-6.2C119.3,110.2,115.8,108.2,112.2,106.2z M114.3,109.9
		c1.4,0.8,2.8,1.6,4.3,2.5c-1.4,0.8-2.8,1.6-4.2,2.5C114.3,113.1,114.3,111.6,114.3,109.9z"/>
	<path class="st0" d="M99.3,112.3c3.6,2.1,7.1,4.1,10.7,6.2v-12.3C106.3,108.2,102.8,110.2,99.3,112.3z M103.6,112.3
		c1.4-0.8,2.8-1.6,4.2-2.4c0,1.7,0,3.2,0,4.9C106.4,113.9,105,113.1,103.6,112.3z"/>
	<path class="st0" d="M113.4,120.4c3.6,2.1,7.1,4.1,10.7,6.1v-12.3C120.4,116.4,116.9,118.4,113.4,120.4z M117.7,120.4
		c1.4-0.8,2.8-1.6,4.2-2.5c0,1.7,0,3.2,0,4.9C120.5,122,119.1,121.3,117.7,120.4z"/>
	<path class="st0" d="M99.2,128.6c3.6,2.1,7.1,4.1,10.7,6.2v-12.3C106.3,124.5,102.8,126.5,99.2,128.6z M107.8,131
		c-1.4-0.8-2.8-1.6-4.3-2.5c1.4-0.8,2.8-1.6,4.3-2.5V131z"/>
	<path class="st0" d="M112.2,122.5c0,4.1,0,8.2,0,12.3c3.6-2.1,7.1-4.1,10.7-6.2C119.3,126.5,115.8,124.5,112.2,122.5z M114.3,126.2
		c1.5,0.8,2.8,1.6,4.3,2.5c-1.5,0.8-2.8,1.6-4.3,2.5V126.2z"/>
	<path class="st0" d="M98.1,114.3c0,4.1,0,8.2,0,12.3c3.6-2.1,7.1-4.1,10.6-6.1C105.2,118.4,101.7,116.4,98.1,114.3z M100.2,118
		c1.4,0.8,2.8,1.6,4.3,2.5c-1.4,0.8-2.8,1.6-4.3,2.5V118z"/>
	<polygon class="st0" points="112.1,120.4 111.6,121.2 110.7,121.2 110.2,120.4 110.7,119.6 111.6,119.6 	"/>
</g>
<g>
	<path class="st0" d="M98.2,130.6v12.3c3.6-2.1,7.1-4.1,10.7-6.2C105.3,134.7,101.8,132.7,98.2,130.6z M100.3,134.3
		c1.4,0.8,2.8,1.6,4.3,2.5c-1.4,0.8-2.8,1.6-4.3,2.5V134.3z"/>
	<path class="st0" d="M85.3,136.7c3.6,2.1,7.1,4.1,10.7,6.2v-12.3C92.3,132.6,88.8,134.7,85.3,136.7z M89.5,136.7
		c1.4-0.8,2.7-1.6,4.2-2.5c0,1.7,0,3.2,0,4.9C92.3,138.3,91,137.5,89.5,136.7z"/>
	<path class="st0" d="M99.4,144.9c3.6,2.1,7.1,4.1,10.7,6.1v-12.3C106.4,140.8,102.9,142.8,99.4,144.9z M103.7,144.9
		c1.4-0.8,2.8-1.6,4.2-2.5c0,1.7,0,3.2,0,4.9C106.4,146.5,105.1,145.7,103.7,144.9z"/>
	<path class="st0" d="M85.2,153c3.6,2.1,7.1,4.1,10.7,6.2v-12.3C92.3,148.9,88.8,151,85.2,153z M93.8,155.5
		c-1.4-0.8-2.8-1.6-4.3-2.5c1.4-0.8,2.8-1.6,4.3-2.5V155.5z"/>
	<path class="st0" d="M98.2,146.9c0,4.1,0,8.1,0,12.3c3.6-2.1,7.1-4.1,10.7-6.2C105.3,151,101.8,149,98.2,146.9z M100.3,150.6
		c1.5,0.8,2.8,1.6,4.3,2.5c-1.5,0.9-2.8,1.6-4.3,2.5V150.6z"/>
	<path class="st0" d="M84.1,138.8c0,4.1,0,8.2,0,12.3c3.6-2.1,7.1-4.1,10.6-6.1C91.1,142.8,87.7,140.8,84.1,138.8z M86.2,142.4
		c1.5,0.8,2.8,1.6,4.3,2.5c-1.4,0.8-2.8,1.6-4.3,2.5V142.4z"/>
	<polygon class="st0" points="98,144.8 97.6,145.6 96.7,145.6 96.2,144.8 96.7,144 97.6,144 	"/>
</g>
<g>
	<path class="st0" d="M70.3,130.4v12.3c3.6-2.1,7.1-4.1,10.7-6.2C77.4,134.5,73.9,132.5,70.3,130.4z M72.4,134.1
		c1.4,0.8,2.8,1.6,4.3,2.5c-1.4,0.8-2.8,1.6-4.2,2.5C72.4,137.4,72.4,135.8,72.4,134.1z"/>
	<path class="st0" d="M57.4,136.5c3.6,2.1,7.1,4.1,10.7,6.2v-12.3C64.4,132.5,60.9,134.5,57.4,136.5z M61.7,136.5
		c1.4-0.8,2.8-1.6,4.2-2.4c0,1.7,0,3.2,0,4.9C64.5,138.1,63.1,137.3,61.7,136.5z"/>
	<path class="st0" d="M71.5,144.7c3.6,2.1,7.1,4.1,10.6,6.1v-12.3C78.5,140.6,75,142.6,71.5,144.7z M75.8,144.7
		c1.4-0.8,2.8-1.6,4.2-2.5c0,1.7,0,3.2,0,4.9C78.5,146.3,77.2,145.5,75.8,144.7z"/>
	<path class="st0" d="M57.3,152.8c3.6,2.1,7.1,4.1,10.7,6.2v-12.3C64.4,148.8,60.9,150.8,57.3,152.8z M65.9,155.3
		c-1.4-0.8-2.8-1.6-4.3-2.5c1.4-0.8,2.8-1.6,4.3-2.5V155.3z"/>
	<path class="st0" d="M70.3,146.7V159c3.6-2.1,7.1-4.1,10.7-6.2C77.4,150.8,73.9,148.8,70.3,146.7z M72.4,150.4
		c1.5,0.8,2.8,1.6,4.3,2.5c-1.5,0.8-2.8,1.6-4.3,2.5V150.4z"/>
	<path class="st0" d="M56.2,138.6v12.3c3.6-2.1,7.1-4.1,10.6-6.1C63.2,142.6,59.8,140.6,56.2,138.6z M58.3,142.2
		c1.5,0.8,2.8,1.6,4.3,2.5c-1.4,0.8-2.8,1.6-4.3,2.5V142.2z"/>
	<polygon class="st0" points="70.2,144.6 69.7,145.4 68.8,145.4 68.3,144.6 68.8,143.8 69.7,143.8 	"/>
</g>
<g>
	<path class="st0" d="M84.4,154.5v11.2h1.9c2.9-1.7,5.8-3.4,8.7-5.1C91.5,158.5,88,156.5,84.4,154.5z M86.5,158.2
		c1.4,0.8,2.8,1.6,4.3,2.5c-1.4,0.8-2.8,1.6-4.3,2.5V158.2z"/>
	<path class="st0" d="M71.5,160.6c3,1.7,5.9,3.4,8.8,5.1h1.8v-11.2C78.5,156.5,75,158.5,71.5,160.6z M75.8,160.6
		c1.4-0.8,2.8-1.6,4.2-2.4c0,1.7,0,3.2,0,4.9C78.6,162.2,77.2,161.4,75.8,160.6z"/>
	<path class="st0" d="M90.9,165.7h5.3v-3.1C94.4,163.6,92.7,164.7,90.9,165.7z"/>
	<path class="st0" d="M70.3,162.6v3h5.3C73.8,164.7,72.1,163.7,70.3,162.6z"/>
</g>
<g>
	<path class="st0" d="M112.2,154.5v11.2h2c2.9-1.7,5.8-3.3,8.7-5C119.3,158.6,115.8,156.6,112.2,154.5z M114.4,158.2
		c1.4,0.8,2.8,1.6,4.3,2.5c-1.4,0.8-2.8,1.6-4.2,2.4C114.4,161.5,114.4,159.9,114.4,158.2z"/>
	<path class="st0" d="M99.3,160.6c3,1.7,5.9,3.4,8.8,5.1h1.9v-11.2C106.4,156.6,102.9,158.6,99.3,160.6z M103.6,160.6
		c1.4-0.8,2.8-1.6,4.2-2.5c0,1.7,0,3.2,0,4.9C106.4,162.2,105,161.4,103.6,160.6z"/>
	<path class="st0" d="M118.8,165.7h5.3v-3.1C122.3,163.7,120.5,164.7,118.8,165.7z"/>
	<path class="st0" d="M98.1,162.7v3h5.2C101.6,164.7,99.9,163.7,98.1,162.7z"/>
</g>
<g>
	<path class="st0" d="M127.5,0c-0.1,0-0.2,0.1-0.2,0.1c1.1,0.6,2.1,1.2,3.2,1.8V0H127.5z"/>
	<path class="st0" d="M123.8,2.1c-3.6,2.1-7.1,4.1-10.7,6.2c3.6,2.1,7.1,4.1,10.7,6.2C123.8,10.3,123.8,6.3,123.8,2.1z M117.4,8.3
		c1.4-0.8,2.8-1.6,4.2-2.5c0,1.7,0,3.3,0,4.9C120.2,9.9,118.9,9.1,117.4,8.3z"/>
	<path class="st0" d="M130.4,7.1V4.7c-1.4-0.8-2.9-1.7-4.3-2.5v12.3c1.5-0.9,2.9-1.7,4.3-2.5V9.5c-0.7,0.4-1.5,0.8-2.2,1.3V5.9
		C129,6.3,129.7,6.7,130.4,7.1z"/>
	<path class="st0" d="M122.3,0h-4.2c0.1,0,0.2,0.1,0.3,0.2c-1.4,0.8-2.8,1.6-4.3,2.5c0-0.9,0-1.8,0-2.6H112c0,2.1,0,4.2,0,6.3
		c3.6-2.1,7.1-4.1,10.6-6.1C122.5,0.1,122.4,0.1,122.3,0z"/>
	<polygon class="st0" points="125.9,0.1 125.5,0.9 124.5,0.9 124.1,0.1 124.1,0 125.9,0 	"/>
</g>
<g>
	<path class="st0" d="M127.3,16c1.1,0.6,2.1,1.2,3.2,1.8v-3.7C129.4,14.8,128.3,15.4,127.3,16z"/>
	<path class="st0" d="M127.2,32.3c1.1,0.6,2.1,1.2,3.2,1.8v-3.7C129.4,31.1,128.3,31.7,127.2,32.3z"/>
	<path class="st0" d="M130.4,23v-2.5c-1.4-0.8-2.9-1.7-4.3-2.5v12.3c1.5-0.8,2.9-1.7,4.3-2.5v-2.5c-0.7,0.4-1.5,0.8-2.2,1.3v-4.9
		C129,22.2,129.7,22.6,130.4,23z"/>
</g>
<g>
	<path class="st0" d="M130.4,39.2v-2.5c-1.4-0.8-2.9-1.7-4.3-2.5v12.3c1.5-0.8,2.9-1.7,4.3-2.5v-2.5c-0.7,0.4-1.4,0.8-2.2,1.3v-4.9
		C129,38.4,129.7,38.8,130.4,39.2z"/>
	<path class="st0" d="M113.2,40.3c3.6,2.1,7.1,4.1,10.7,6.2V34.2C120.2,36.3,116.8,38.3,113.2,40.3z M117.5,40.3
		c1.4-0.8,2.8-1.6,4.2-2.4c0,1.7,0,3.2,0,4.9C120.3,41.9,118.9,41.1,117.5,40.3z"/>
	<path class="st0" d="M127.3,48.5c1.1,0.6,2.1,1.2,3.1,1.8v-3.6C129.4,47.3,128.4,47.9,127.3,48.5z"/>
	<path class="st0" d="M123.8,50.5c-3.6,2.1-7.1,4.1-10.7,6.2c3.6,2.1,7.1,4.1,10.7,6.2C123.9,58.7,123.8,54.6,123.8,50.5z
		 M117.5,56.6c1.4-0.8,2.8-1.6,4.2-2.5c0,1.7,0,3.3,0,4.9C120.3,58.2,118.9,57.5,117.5,56.6z"/>
	<path class="st0" d="M130.4,55.5V53c-1.4-0.8-2.9-1.6-4.3-2.5v12.3c1.5-0.8,2.9-1.7,4.3-2.5v-2.5c-0.7,0.4-1.4,0.8-2.2,1.2v-4.9
		C129,54.6,129.7,55.1,130.4,55.5z"/>
	<path class="st0" d="M112,42.4c0,4.1,0,8.2,0,12.3c3.6-2.1,7.1-4.1,10.6-6.1C119.1,46.4,115.6,44.4,112,42.4z M114.2,46
		c1.5,0.8,2.8,1.6,4.3,2.5c-1.4,0.8-2.8,1.6-4.3,2.5C114.1,49.3,114.2,47.7,114.2,46z"/>
	<polygon class="st0" points="126,48.4 125.5,49.2 124.6,49.2 124.1,48.4 124.6,47.6 125.5,47.6 	"/>
</g>
<g>
	<path class="st0" d="M127.3,64.4c1.1,0.6,2.1,1.2,3.1,1.8v-3.6C129.4,63.2,128.4,63.8,127.3,64.4z"/>
	<path class="st0" d="M127.3,80.7c1.1,0.6,2.1,1.2,3.2,1.8v-3.7C129.4,79.5,128.3,80.1,127.3,80.7z"/>
	<path class="st0" d="M130.4,71.4v-2.4c-1.4-0.8-2.9-1.7-4.3-2.5v12.3c1.5-0.8,2.9-1.7,4.3-2.5v-2.5c-0.7,0.4-1.4,0.8-2.2,1.3v-4.9
		C129,70.5,129.7,70.9,130.4,71.4z"/>
</g>
<g>
	<path class="st0" d="M130.4,87.3v-2.5c-1.4-0.8-2.8-1.6-4.2-2.5v12.3c1.4-0.8,2.8-1.6,4.2-2.5v-2.5c-0.7,0.4-1.4,0.8-2.1,1.2v-4.9
		C129,86.5,129.7,86.9,130.4,87.3z"/>
	<path class="st0" d="M113.3,88.5c3.6,2.1,7.1,4.1,10.7,6.2V82.4C120.3,84.4,116.8,86.4,113.3,88.5z M117.5,88.5
		c1.4-0.8,2.8-1.6,4.2-2.4c0,1.7,0,3.2,0,4.9C120.4,90.1,119,89.3,117.5,88.5z"/>
	<path class="st0" d="M127.4,96.7c1,0.6,2,1.2,3,1.8v-3.5C129.4,95.5,128.4,96.1,127.4,96.7z"/>
	<path class="st0" d="M123.9,98.6c-3.6,2.1-7.1,4.1-10.7,6.2c3.6,2.1,7.1,4.1,10.7,6.2C123.9,106.8,123.9,102.8,123.9,98.6z
		 M121.8,107.3c-1.4-0.8-2.8-1.6-4.2-2.5c1.4-0.8,2.8-1.6,4.2-2.5V107.3z"/>
	<path class="st0" d="M130.4,103.6v-2.5c-1.4-0.8-2.8-1.6-4.2-2.5V111c1.4-0.8,2.8-1.6,4.2-2.4v-2.4c-0.7,0.4-1.4,0.8-2.1,1.2v-4.9
		C129,102.8,129.8,103.2,130.4,103.6z"/>
	<path class="st0" d="M112.1,90.6c0,4.1,0,8.1,0,12.3c3.6-2.1,7.1-4.1,10.6-6.1C119.1,94.6,115.7,92.6,112.1,90.6z M114.2,94.2
		c1.4,0.8,2.8,1.6,4.3,2.5c-1.4,0.8-2.8,1.6-4.3,2.5C114.2,97.5,114.2,95.9,114.2,94.2z"/>
	<polygon class="st0" points="126,96.6 125.6,97.4 124.7,97.4 124.2,96.6 124.7,95.8 125.6,95.8 	"/>
</g>
<g>
	<path class="st0" d="M127.4,112.6c1,0.6,2,1.2,3.1,1.8v-3.5C129.4,111.4,128.4,112,127.4,112.6z"/>
	<path class="st0" d="M127.4,128.9c1,0.6,2.1,1.2,3.1,1.8v-3.6C129.4,127.7,128.4,128.3,127.4,128.9z"/>
	<path class="st0" d="M130.4,119.5v-2.4c-1.4-0.8-2.8-1.6-4.2-2.4v12.3c1.4-0.8,2.8-1.6,4.2-2.4V122c-0.7,0.4-1.4,0.8-2.1,1.2v-4.9
		C129.1,118.7,129.8,119.1,130.4,119.5z"/>
</g>
<g>
	<path class="st0" d="M130.4,135.7v-2.5c-1.4-0.8-2.8-1.6-4.2-2.4v12.3c1.4-0.8,2.8-1.6,4.2-2.4v-2.4c-0.7,0.4-1.4,0.8-2.1,1.2v-4.9
		C129.1,134.9,129.8,135.3,130.4,135.7z"/>
	<path class="st0" d="M113.3,136.9c3.6,2.1,7.1,4.1,10.7,6.1v-12.3C120.3,132.8,116.9,134.8,113.3,136.9z M117.6,136.8
		c1.4-0.8,2.8-1.6,4.2-2.4c0,1.7,0,3.2,0,4.9C120.4,138.5,119,137.7,117.6,136.8z"/>
	<path class="st0" d="M127.4,145c1,0.6,2,1.2,3,1.7v-3.5C129.4,143.8,128.4,144.4,127.4,145z"/>
	<path class="st0" d="M124,147c-3.6,2.1-7.1,4.1-10.7,6.2c3.6,2.1,7.1,4.1,10.7,6.2C124,155.2,124,151.1,124,147z M117.6,153.1
		c1.4-0.8,2.8-1.6,4.2-2.5c0,1.7,0,3.3,0,4.9C120.4,154.8,119,154,117.6,153.1z"/>
	<path class="st0" d="M130.4,151.9v-2.5c-1.4-0.8-2.8-1.6-4.2-2.4v12.3c1.4-0.8,2.8-1.6,4.2-2.4v-2.5c-0.7,0.4-1.4,0.8-2.1,1.2v-4.9
		C129.1,151.1,129.8,151.5,130.4,151.9z"/>
	<path class="st0" d="M112.1,138.9c0,4.1,0,8.2,0,12.3c3.6-2.1,7.1-4.1,10.6-6.1C119.2,143,115.7,141,112.1,138.9z M114.3,142.6
		c1.5,0.8,2.8,1.6,4.3,2.5c-1.4,0.8-2.8,1.6-4.3,2.5C114.2,145.8,114.3,144.2,114.3,142.6z"/>
	<polygon class="st0" points="126.1,145 125.6,145.8 124.7,145.8 124.2,145 124.7,144.1 125.6,144.1 	"/>
</g>
<g>
	<path class="st0" d="M127.4,160.9c1,0.6,2,1.2,3,1.8v-3.5C129.4,159.8,128.4,160.3,127.4,160.9z"/>
	<path class="st0" d="M126.2,163v2.7h4.2v-0.3C129,164.6,127.7,163.8,126.2,163z"/>
</g>
<path class="st0" d="M0,42.4c0,4.1,0,8.2,0,12.3c3.6-2.1,7.1-4.1,10.6-6.1C7.1,46.4,3.6,44.4,0,42.4z M2.2,46
	c1.4,0.8,2.8,1.6,4.3,2.5C5,49.3,3.6,50.1,2.2,51V46z"/>
<path class="st0" d="M0.1,90.6c0,4.1,0,8.1,0,12.3c3.6-2.1,7.1-4.1,10.6-6.1C7.2,94.6,3.7,92.6,0.1,90.6z M2.2,94.2
	c1.5,0.8,2.8,1.6,4.3,2.5c-1.4,0.8-2.8,1.6-4.3,2.5V94.2z"/>
<path class="st0" d="M0.1,138.9c0,4.1,0,8.2,0,12.3c3.6-2.1,7.1-4.1,10.6-6.1C7.2,143,3.7,141,0.1,138.9z M2.3,142.6
	c1.5,0.8,2.8,1.6,4.3,2.5c-1.4,0.8-2.8,1.6-4.3,2.5V142.6z"/>
<path class="st0" d="M10.7,0.2c-3.5,2-7,4.1-10.6,6.1C0,4.2,0,2.1,0,0h2.1v2.6C3.6,1.8,5,1,6.4,0.2C6.3,0.1,6.2,0.1,6.1,0h4.2
	C10.4,0.1,10.5,0.1,10.7,0.2z"/>
<path class="st0" d="M1.2,8.3c3.6,2.1,7.1,4.1,10.7,6.2V2.1C8.2,4.2,4.7,6.2,1.2,8.3z M9.7,10.7C8.3,9.9,6.9,9.1,5.5,8.3
	c1.4-0.8,2.8-1.6,4.3-2.5V10.7z"/>
<path class="st0" d="M1.2,40.3c3.6,2.1,7.1,4.1,10.7,6.2V34.2C8.3,36.3,4.8,38.3,1.2,40.3z M5.5,40.3c1.4-0.8,2.8-1.6,4.2-2.4
	c0,1.7,0,3.2,0,4.9C8.3,41.9,6.9,41.1,5.5,40.3z"/>
<path class="st0" d="M1.2,56.6c3.6,2.1,7.1,4.1,10.7,6.2V50.5C8.2,52.6,4.8,54.6,1.2,56.6z M9.7,59.1c-1.4-0.8-2.8-1.6-4.3-2.5
	c1.4-0.8,2.8-1.6,4.3-2.5V59.1z"/>
<path class="st0" d="M1.3,88.5c3.6,2.1,7.1,4.1,10.7,6.2V82.4C8.3,84.4,4.9,86.4,1.3,88.5z M5.6,88.5C7,87.7,8.3,86.9,9.8,86
	c0,1.7,0,3.2,0,4.9C8.4,90.1,7,89.3,5.6,88.5z"/>
<path class="st0" d="M1.3,104.8c3.6,2.1,7.1,4.1,10.7,6.2V98.6C8.3,100.7,4.9,102.8,1.3,104.8z M9.8,107.3c-1.4-0.8-2.8-1.6-4.3-2.5
	c1.4-0.8,2.8-1.6,4.3-2.5V107.3z"/>
<path class="st0" d="M1.3,136.9c3.6,2.1,7.1,4.1,10.7,6.1v-12.3C8.4,132.8,4.9,134.8,1.3,136.9z M5.6,136.8c1.4-0.8,2.8-1.6,4.2-2.4
	c0,1.7,0,3.2,0,4.9C8.4,138.5,7,137.7,5.6,136.8z"/>
<path class="st0" d="M1.3,153.2c3.6,2.1,7.1,4.1,10.7,6.2V147C8.4,149.1,4.9,151.1,1.3,153.2z M9.9,155.6c-1.4-0.8-2.8-1.6-4.3-2.5
	c1.4-0.8,2.8-1.6,4.3-2.5V155.6z"/>
<polygon class="st0" points="12.6,0.9 12.1,0.1 12.2,0 13.9,0 14,0.1 13.5,0.9 "/>
<polygon class="st0" points="12.6,49.2 12.1,48.4 12.6,47.6 13.5,47.6 14,48.4 13.5,49.2 "/>
<polygon class="st0" points="12.7,97.4 12.2,96.6 12.7,95.8 13.6,95.8 14.1,96.6 13.6,97.4 "/>
<polygon class="st0" points="13.6,144.1 14.1,145 13.6,145.8 12.7,145.8 12.2,145 12.7,144.1 "/>
<path class="st0" d="M14.1,2.2v12.3c3.6-2.1,7.1-4.1,10.7-6.2C21.2,6.3,17.7,4.2,14.1,2.2z M16.2,5.9c1.5,0.8,2.8,1.6,4.3,2.5
	c-1.5,0.9-2.8,1.6-4.3,2.5V5.9z"/>
<path class="st0" d="M14.1,18.1c0,4.1,0,8.2,0,12.3c3.6-2.1,7.1-4.1,10.6-6.1C21.2,22.2,17.7,20.1,14.1,18.1z M16.3,21.8
	c1.5,0.8,2.8,1.6,4.3,2.5c-1.4,0.8-2.8,1.6-4.3,2.5C16.3,25,16.3,23.4,16.3,21.8z"/>
<path class="st0" d="M14.2,50.5v12.3c3.6-2.1,7.1-4.1,10.6-6.1C21.2,54.6,17.7,52.6,14.2,50.5z M16.3,54.2c1.5,0.9,2.8,1.6,4.3,2.5
	c-1.5,0.8-2.8,1.6-4.3,2.5V54.2z"/>
<path class="st0" d="M14.1,34.2v12.3c3.6-2.1,7.1-4.1,10.7-6.2C21.2,38.3,17.7,36.3,14.1,34.2z M16.3,37.9c1.4,0.8,2.8,1.6,4.3,2.5
	c-1.4,0.8-2.8,1.6-4.2,2.5C16.3,41.2,16.3,39.6,16.3,37.9z"/>
<path class="st0" d="M14.2,66.4c0,4.1,0,8.1,0,12.3c3.6-2.1,7.1-4.1,10.6-6.1C21.2,70.5,17.7,68.5,14.2,66.4z M16.3,70.1
	c1.4,0.8,2.8,1.6,4.3,2.5c-1.4,0.8-2.8,1.6-4.3,2.5C16.3,73.3,16.3,71.8,16.3,70.1z"/>
<path class="st0" d="M14.2,98.7c0,4.1,0,8.2,0,12.3c3.6-2.1,7.1-4.1,10.6-6.1C21.3,102.8,17.8,100.8,14.2,98.7z M16.4,102.4
	c1.5,0.9,2.8,1.6,4.3,2.5c-1.5,0.8-2.8,1.6-4.3,2.5V102.4z"/>
<path class="st0" d="M14.2,82.4v12.3c3.6-2.1,7.1-4.1,10.7-6.2C21.3,86.5,17.8,84.5,14.2,82.4z M16.4,86.1c1.4,0.8,2.8,1.6,4.3,2.5
	c-1.4,0.8-2.8,1.6-4.2,2.5C16.4,89.4,16.4,87.8,16.4,86.1z"/>
<path class="st0" d="M14.2,114.6c0,4.1,0,8.1,0,12.3c3.6-2.1,7.1-4.1,10.6-6.1C21.3,118.7,17.8,116.7,14.2,114.6z M16.4,118.3
	c1.5,0.8,2.8,1.6,4.3,2.5c-1.4,0.8-2.8,1.6-4.3,2.5C16.4,121.5,16.4,120,16.4,118.3z"/>
<path class="st0" d="M14.3,147v12.3c3.6-2.1,7.1-4.1,10.7-6.2C21.3,151.1,17.8,149.1,14.3,147z M16.4,150.7c1.5,0.8,2.8,1.6,4.3,2.5
	c-1.5,0.8-2.8,1.6-4.3,2.5V150.7z"/>
<path class="st0" d="M14.2,130.7v12.3c3.6-2.1,7.1-4.1,10.7-6.2C21.3,134.8,17.8,132.8,14.2,130.7z M16.4,134.5
	c1.4,0.8,2.8,1.6,4.3,2.5c-1.4,0.8-2.8,1.6-4.2,2.5C16.4,137.7,16.4,136.1,16.4,134.5z"/>
<path class="st0" d="M14.3,163c1.6,0.9,3.1,1.8,4.7,2.7h-4.7V163z"/>
<path class="st0" d="M26,0v6.3c-3.6-2-7-4.1-10.7-6.1c0.1,0,0.2-0.1,0.2-0.1h4.3c-0.1,0-0.1,0.1-0.2,0.1C21,1,22.4,1.8,23.8,2.6
	c0-0.9,0-1.7,0-2.6H26z"/>
<path class="st0" d="M15.3,16c3.6,2.1,7.1,4.1,10.7,6.2V9.9C22.3,12,18.9,14,15.3,16z M19.6,16c1.4-0.8,2.8-1.6,4.2-2.5
	c0,1.7,0,3.2,0,4.9C22.4,17.6,21,16.9,19.6,16z"/>
<path class="st0" d="M26,26.2c-3.6,2.1-7.1,4.1-10.7,6.2c3.6,2.1,7.1,4.1,10.7,6.2C26,34.4,26,30.3,26,26.2z M23.8,34.8
	c-1.4-0.8-2.8-1.6-4.3-2.5c1.4-0.8,2.8-1.6,4.3-2.5V34.8z"/>
<path class="st0" d="M15.3,48.5c3.6,2.1,7.1,4.1,10.7,6.1V42.3C22.4,44.4,18.9,46.4,15.3,48.5z M19.6,48.5c1.4-0.8,2.8-1.6,4.2-2.5
	c0,1.7,0,3.2,0,4.9C22.4,50.1,21,49.3,19.6,48.5z"/>
<path class="st0" d="M15.3,64.4c3.6,2.1,7.1,4.1,10.7,6.2V58.2C22.4,60.3,18.9,62.3,15.3,64.4z M23.9,66.8c-1.4-0.8-2.8-1.6-4.2-2.4
	c1.4-0.8,2.8-1.6,4.2-2.4V66.8z"/>
<path class="st0" d="M26,74.5c-3.6,2.1-7.1,4.1-10.7,6.2c3.6,2.1,7.1,4.1,10.7,6.2C26,82.7,26,78.7,26,74.5z M23.9,83.1
	c-1.4-0.8-2.8-1.6-4.3-2.5c1.4-0.8,2.8-1.6,4.3-2.5V83.1z"/>
<path class="st0" d="M15.4,96.7c3.6,2.1,7.1,4.1,10.6,6.2V90.5C22.4,92.6,19,94.6,15.4,96.7z M19.7,96.7c1.4-0.8,2.8-1.6,4.2-2.5
	c0,1.7,0,3.2,0,4.9C22.5,98.3,21.1,97.5,19.7,96.7z"/>
<path class="st0" d="M15.4,112.6c3.6,2.1,7.1,4.1,10.6,6.2v-12.3C22.5,108.5,19,110.5,15.4,112.6z M19.7,112.6
	c1.4-0.8,2.8-1.6,4.2-2.5c0,1.7,0,3.2,0,4.9C22.5,114.2,21.1,113.4,19.7,112.6z"/>
<path class="st0" d="M26.1,122.7c-3.6,2.1-7.1,4.1-10.7,6.2c3.6,2.1,7.1,4.1,10.7,6.2C26.1,130.9,26.1,126.9,26.1,122.7z
	 M19.7,128.9c1.4-0.8,2.8-1.6,4.2-2.5c0,1.7,0,3.3,0,4.9C22.5,130.5,21.2,129.7,19.7,128.9z"/>
<path class="st0" d="M15.4,145c3.6,2.1,7.1,4.1,10.7,6.2v-12.3C22.5,140.9,19,143,15.4,145z M19.7,145c1.4-0.8,2.8-1.6,4.2-2.5
	c0,1.7,0,3.2,0,4.9C22.5,146.6,21.2,145.8,19.7,145z"/>
<path class="st0" d="M15.4,160.9c2.8,1.6,5.5,3.2,8.2,4.8h2.4v-10.9C22.5,156.8,19,158.9,15.4,160.9z M19.7,160.9
	c1.4-0.8,2.8-1.6,4.2-2.4c0,1.7,0,3.2,0,4.9C22.5,162.5,21.2,161.7,19.7,160.9z"/>
<polygon class="st0" points="26.7,24.9 26.2,24.1 26.7,23.3 27.6,23.3 28.1,24.1 27.6,24.9 "/>
<polygon class="st0" points="26.7,73.3 26.3,72.5 26.7,71.7 27.7,71.7 28.1,72.5 27.7,73.3 "/>
<polygon class="st0" points="28.2,120.7 27.7,121.5 26.8,121.5 26.3,120.7 26.8,119.9 27.7,119.9 "/>
<path class="st0" d="M27.9,42.6c0,4.1,0,8.2,0,12.3c3.6-2.1,7.1-4.1,10.6-6.1C35,46.6,31.5,44.6,27.9,42.6z M30.1,46.2
	c1.5,0.8,2.8,1.6,4.3,2.5c-1.4,0.8-2.8,1.6-4.3,2.5V46.2z"/>
<path class="st0" d="M28,90.8c0,4.1,0,8.2,0,12.3c3.6-2.1,7.1-4.1,10.6-6.1C35.1,94.8,31.6,92.8,28,90.8z M30.2,94.4
	c1.5,0.8,2.8,1.6,4.3,2.5c-1.4,0.8-2.8,1.6-4.3,2.5V94.4z"/>
<path class="st0" d="M28,139.1c0,4.1,0,8.2,0,12.3c3.6-2.1,7.1-4.1,10.6-6.1C35.1,143.2,31.6,141.2,28,139.1z M30.2,142.8
	c1.5,0.8,2.8,1.6,4.3,2.5c-1.4,0.8-2.8,1.6-4.3,2.5V142.8z"/>
<path class="st0" d="M28.2,26.2v12.3c3.6-2.1,7.1-4.1,10.7-6.2C35.3,30.3,31.8,28.3,28.2,26.2z M30.4,29.9c1.5,0.8,2.8,1.6,4.3,2.5
	c-1.5,0.9-2.8,1.6-4.3,2.5V29.9z"/>
<path class="st0" d="M28.2,9.9v12.3c3.6-2.1,7.1-4.1,10.7-6.2C35.3,14,31.8,12,28.2,9.9z M30.4,13.6c1.4,0.8,2.8,1.6,4.3,2.5
	c-1.4,0.8-2.8,1.6-4.3,2.5V13.6z"/>
<path class="st0" d="M28.3,74.6c0,4.1,0,8.2,0,12.3c3.6-2.1,7.1-4.1,10.7-6.1C35.3,78.7,31.9,76.7,28.3,74.6z M30.4,78.3
	c1.5,0.9,2.8,1.6,4.3,2.5c-1.5,0.8-2.8,1.6-4.3,2.5V78.3z"/>
<path class="st0" d="M28.3,58.3v12.3c3.6-2.1,7.1-4.1,10.7-6.2C35.3,62.4,31.8,60.3,28.3,58.3z M30.4,62c1.4,0.8,2.8,1.6,4.3,2.5
	c-1.4,0.8-2.8,1.6-4.3,2.5V62z"/>
<path class="st0" d="M28.3,122.8v12.3c3.6-2.1,7.1-4.1,10.7-6.1C35.4,126.8,31.9,124.8,28.3,122.8z M30.5,126.4
	c1.5,0.9,2.8,1.6,4.3,2.5c-1.5,0.8-2.8,1.6-4.3,2.5V126.4z"/>
<path class="st0" d="M28.3,106.4v12.3c3.6-2.1,7.1-4.1,10.7-6.2C35.4,110.5,31.9,108.5,28.3,106.4z M30.5,110.2
	c1.4,0.8,2.8,1.6,4.3,2.5c-1.4,0.8-2.8,1.6-4.3,2.5V110.2z"/>
<path class="st0" d="M28.4,154.8v10.9h2.5c2.7-1.6,5.4-3.1,8.2-4.7C35.4,158.9,32,156.9,28.4,154.8z M30.5,163.4v-4.9
	c1.4,0.8,2.8,1.6,4.3,2.5C33.3,161.8,32,162.6,30.5,163.4z"/>
<path class="st0" d="M38.5,0.4c-3.6,2.1-7,4.1-10.6,6.1c0-2.2,0-4.3,0-6.5H30v2.8c1.5-0.8,2.8-1.6,4.3-2.5c-0.2-0.1-0.4-0.2-0.6-0.4
	h4.2C38.1,0.1,38.3,0.2,38.5,0.4z"/>
<path class="st0" d="M39.7,2.3C36.1,4.4,32.6,6.4,29,8.5c3.6,2.1,7.1,4.1,10.7,6.2C39.7,10.5,39.7,6.5,39.7,2.3z M37.6,10.9
	c-1.4-0.8-2.8-1.6-4.3-2.5c1.4-0.8,2.8-1.6,4.3-2.5V10.9z"/>
<path class="st0" d="M29.1,40.5c3.6,2.1,7.1,4.1,10.6,6.2V34.4C36.2,36.5,32.7,38.5,29.1,40.5z M37.6,43c-1.4-0.8-2.8-1.6-4.2-2.5
	c1.4-0.8,2.8-1.6,4.2-2.4V43z"/>
<path class="st0" d="M39.8,50.7c-3.6,2.1-7.1,4.1-10.7,6.2c3.6,2.1,7.1,4.1,10.7,6.2C39.8,58.9,39.8,54.8,39.8,50.7z M37.6,59.3
	c-1.4-0.8-2.8-1.6-4.3-2.5c1.4-0.8,2.8-1.6,4.3-2.5V59.3z"/>
<path class="st0" d="M29.2,88.7c3.6,2.1,7.1,4.1,10.7,6.2V82.5C36.2,84.6,32.8,86.6,29.2,88.7z M37.7,91.1c-1.4-0.8-2.8-1.6-4.2-2.4
	c1.4-0.8,2.8-1.6,4.2-2.5V91.1z"/>
<path class="st0" d="M39.8,98.8c-3.6,2.1-7.1,4.1-10.7,6.2c3.6,2.1,7.1,4.1,10.7,6.2C39.9,107,39.9,103,39.8,98.8z M37.7,107.5
	c-1.4-0.8-2.8-1.6-4.3-2.5c1.4-0.8,2.8-1.6,4.3-2.5V107.5z"/>
<path class="st0" d="M29.2,137c3.6,2.1,7.1,4.1,10.6,6.1v-12.3C36.3,133,32.8,135,29.2,137z M37.7,139.5c-1.4-0.8-2.8-1.6-4.2-2.5
	c1.4-0.8,2.8-1.6,4.2-2.5V139.5z"/>
<path class="st0" d="M39.9,147.2c-3.6,2.1-7.1,4.1-10.7,6.2c3.6,2.1,7.1,4.1,10.7,6.2C39.9,155.4,39.9,151.3,39.9,147.2z
	 M37.8,155.8c-1.4-0.8-2.8-1.6-4.3-2.5c1.4-0.8,2.8-1.6,4.3-2.5V155.8z"/>
<path class="st0" d="M40.1,18c-3.6,2.1-7.1,4.1-10.6,6.1c3.6,2.1,7.1,4.1,10.6,6.2C40.1,26.2,40.1,22.2,40.1,18z M33.7,24.2
	c1.4-0.8,2.8-1.6,4.2-2.5c0,1.7,0,3.2,0,4.9C36.5,25.8,35.1,25,33.7,24.2z"/>
<path class="st0" d="M40.1,66.4c-3.6,2.1-7.1,4.1-10.6,6.1c3.6,2.1,7.1,4.1,10.7,6.2C40.1,74.6,40.1,70.5,40.1,66.4z M33.7,72.5
	c1.4-0.8,2.8-1.6,4.2-2.5c0,1.7,0,3.2,0,4.9C36.5,74.2,35.2,73.4,33.7,72.5z"/>
<path class="st0" d="M40.2,114.6c-3.6,2.1-7.1,4.1-10.6,6.2c3.6,2.1,7.1,4.1,10.6,6.2C40.2,122.8,40.2,118.7,40.2,114.6z
	 M33.8,120.7c1.4-0.8,2.8-1.6,4.2-2.5c0,1.7,0,3.2,0,4.9C36.6,122.3,35.2,121.5,33.8,120.7z"/>
<path class="st0" d="M35.4,165.7c1.6-0.9,3.2-1.8,4.8-2.8v2.8H35.4z"/>
<polygon class="st0" points="40.5,1.1 40,0.3 40.2,0 41.7,0 41.9,0.3 41.4,1.1 "/>
<polygon class="st0" points="41.4,47.8 41.9,48.6 41.4,49.4 40.5,49.4 40,48.6 40.5,47.8 "/>
<polygon class="st0" points="40.6,97.6 40.1,96.8 40.6,96 41.5,96 42,96.8 41.5,97.6 "/>
<polygon class="st0" points="41.5,144.3 42,145.1 41.5,146 40.6,146 40.2,145.1 40.6,144.3 "/>
<path class="st0" d="M41.9,18.1c0,4.1,0,8.2,0,12.3c3.6-2.1,7.1-4.1,10.6-6.1C49,22.2,45.5,20.2,41.9,18.1z M44.1,21.8
	c1.5,0.8,2.8,1.6,4.3,2.5c-1.4,0.8-2.8,1.6-4.3,2.5V21.8z"/>
<path class="st0" d="M42,66.5c0,4.1,0,8.1,0,12.3c3.6-2.1,7.1-4.1,10.6-6.1C49,70.5,45.5,68.5,42,66.5z M44.1,70.1
	c1.4,0.8,2.8,1.6,4.3,2.5c-1.4,0.8-2.8,1.6-4.3,2.5V70.1z"/>
<path class="st0" d="M42,2.4c0,4.1,0,8.2,0,12.3c3.6-2.1,7.1-4.1,10.7-6.2C49.1,6.4,45.6,4.4,42,2.4z M44.1,6.1
	c1.5,0.8,2.8,1.6,4.3,2.5c-1.5,0.8-2.8,1.6-4.3,2.5V6.1z"/>
<path class="st0" d="M42,50.7c0,4.1,0,8.2,0,12.3c3.6-2.1,7.1-4.1,10.7-6.2C49.1,54.8,45.6,52.8,42,50.7z M44.2,54.4
	c1.5,0.8,2.8,1.6,4.3,2.5c-1.5,0.8-2.8,1.6-4.3,2.5V54.4z"/>
<path class="st0" d="M42,34.4v12.3c3.6-2.1,7.1-4.1,10.7-6.2C49.1,38.5,45.6,36.5,42,34.4z M44.2,38.1c1.4,0.8,2.8,1.6,4.3,2.5
	c-1.4,0.8-2.8,1.6-4.3,2.5V38.1z"/>
<path class="st0" d="M42,114.7c0,4.1,0,8.2,0,12.3c3.6-2.1,7.1-4.1,10.6-6.1C49.1,118.7,45.6,116.7,42,114.7z M44.2,118.3
	c1.5,0.8,2.8,1.6,4.3,2.5c-1.4,0.8-2.8,1.6-4.3,2.5V118.3z"/>
<path class="st0" d="M42.1,98.9c0,4.1,0,8.2,0,12.3c3.6-2.1,7.1-4.1,10.7-6.2C49.2,103,45.7,101,42.1,98.9z M44.2,102.6
	c1.5,0.8,2.8,1.6,4.3,2.5c-1.5,0.8-2.8,1.6-4.3,2.5V102.6z"/>
<path class="st0" d="M42.1,82.6v12.3c3.6-2.1,7.1-4.1,10.7-6.2C49.2,86.7,45.7,84.7,42.1,82.6z M44.2,86.3c1.4,0.8,2.8,1.6,4.3,2.5
	c-1.4,0.8-2.8,1.6-4.3,2.5V86.3z"/>
<path class="st0" d="M42.2,147.2c0,4.1,0,8.1,0,12.3c3.6-2.1,7.1-4.1,10.6-6.2C49.2,151.3,45.7,149.3,42.2,147.2z M44.3,150.9
	c1.5,0.8,2.8,1.6,4.3,2.5c-1.5,0.9-2.8,1.6-4.3,2.5V150.9z"/>
<path class="st0" d="M42.2,130.9v12.3c3.6-2.1,7.1-4.1,10.7-6.2C49.2,135,45.7,133,42.2,130.9z M44.3,134.7c1.4,0.8,2.8,1.6,4.3,2.5
	c-1.4,0.8-2.8,1.6-4.3,2.5V134.7z"/>
<path class="st0" d="M42.1,163c1.6,0.9,3.1,1.8,4.6,2.7h-4.6V163z"/>
<path class="st0" d="M43.1,16.1c3.6,2.1,7.1,4.1,10.7,6.2V9.9C50.2,12,46.7,14,43.1,16.1z M47.4,16.1c1.4-0.8,2.7-1.6,4.2-2.4
	c0,1.7,0,3.2,0,4.9C50.2,17.7,48.9,16.9,47.4,16.1z"/>
<path class="st0" d="M43.1,32.4c3.6,2.1,7.1,4.1,10.7,6.2V26.2C50.2,28.3,46.7,30.3,43.1,32.4z M51.7,34.8c-1.4-0.8-2.8-1.6-4.3-2.5
	c1.4-0.8,2.8-1.6,4.3-2.5V34.8z"/>
<path class="st0" d="M43.2,64.4c3.6,2.1,7.1,4.1,10.6,6.1V58.3C50.2,60.4,46.7,62.4,43.2,64.4z M47.4,64.4c1.4-0.8,2.8-1.6,4.2-2.4
	c0,1.7,0,3.2,0,4.9C50.2,66,48.9,65.2,47.4,64.4z"/>
<path class="st0" d="M43.1,80.7c3.6,2.1,7.1,4.1,10.7,6.2V74.6C50.2,76.7,46.7,78.7,43.1,80.7z M51.7,83.2c-1.4-0.8-2.8-1.6-4.3-2.5
	c1.4-0.8,2.8-1.6,4.3-2.5V83.2z"/>
<path class="st0" d="M53.9,6.5c-3.6-2.1-7.1-4.1-10.7-6.2L43.8,0H48l-0.6,0.3c1.4,0.8,2.8,1.6,4.2,2.5c0-0.9,0-1.9,0-2.8h2.1
	C53.9,2.2,53.9,4.3,53.9,6.5z"/>
<path class="st0" d="M53.9,42.5c-3.6,2.1-7.1,4.1-10.6,6.2c3.6,2.1,7.1,4.1,10.6,6.1C53.9,50.7,53.9,46.7,53.9,42.5z M47.5,48.7
	c1.4-0.8,2.8-1.6,4.2-2.5c0,1.7,0,3.2,0,4.9C50.3,50.3,48.9,49.5,47.5,48.7z"/>
<path class="st0" d="M43.2,112.6c3.6,2.1,7.1,4.1,10.6,6.1v-12.3C50.3,108.5,46.8,110.5,43.2,112.6z M47.5,112.6
	c1.4-0.8,2.7-1.6,4.2-2.4c0,1.7,0,3.2,0,4.9C50.3,114.2,49,113.4,47.5,112.6z"/>
<path class="st0" d="M43.2,128.9c3.6,2.1,7.1,4.1,10.7,6.2v-12.3C50.3,124.8,46.8,126.8,43.2,128.9z M51.8,131.4
	c-1.4-0.8-2.8-1.6-4.3-2.5c1.4-0.8,2.8-1.6,4.3-2.5V131.4z"/>
<path class="st0" d="M43.3,160.9c2.8,1.6,5.5,3.2,8.2,4.7h2.5v-10.9C50.3,156.9,46.8,158.9,43.3,160.9z M47.5,160.9
	c1.4-0.8,2.7-1.6,4.2-2.5c0,1.7,0,3.2,0,4.9C50.3,162.5,49,161.8,47.5,160.9z"/>
<path class="st0" d="M54,90.7c-3.6,2.1-7.1,4.1-10.6,6.2c3.6,2.1,7.1,4.1,10.7,6.1C54,98.9,54,94.9,54,90.7z M47.6,96.9
	c1.4-0.8,2.8-1.6,4.2-2.5c0,1.7,0,3.2,0,4.9C50.4,98.5,49,97.7,47.6,96.9z"/>
<path class="st0" d="M54,139.1c-3.6,2.1-7.1,4.1-10.6,6.1c3.6,2.1,7.1,4.1,10.6,6.2C54,147.2,54,143.2,54,139.1z M47.6,145.2
	c1.4-0.8,2.8-1.6,4.2-2.4c0,1.7,0,3.2,0,4.9C50.4,146.8,49,146,47.6,145.2z"/>
<polygon class="st0" points="54.5,25 54,24.2 54.5,23.4 55.4,23.4 55.9,24.2 55.4,25 "/>
<polygon class="st0" points="54.5,73.3 54.1,72.5 54.5,71.7 55.5,71.7 55.9,72.5 55.5,73.3 "/>
<polygon class="st0" points="55.5,119.9 56,120.7 55.5,121.5 54.6,121.5 54.2,120.7 54.6,119.9 "/>
<path class="st0" d="M56,26.3c0,4.1,0,8.2,0,12.3c3.6-2.1,7.1-4.1,10.7-6.1C63.1,30.4,59.6,28.3,56,26.3z M58.2,30
	c1.5,0.9,2.8,1.6,4.3,2.5c-1.5,0.8-2.8,1.6-4.3,2.5V30z"/>
<path class="st0" d="M56,10v12.3c3.6-2.1,7.1-4.1,10.7-6.2C63.1,14,59.6,12,56,10z M58.2,13.7c1.4,0.8,2.8,1.6,4.3,2.5
	c-1.4,0.8-2.8,1.6-4.3,2.5V13.7z"/>
<path class="st0" d="M56.1,74.6c0,4.1,0,8.2,0,12.3c3.6-2.1,7.1-4.1,10.6-6.2C63.2,78.7,59.7,76.7,56.1,74.6z M58.2,78.3
	c1.5,0.8,2.8,1.6,4.3,2.5c-1.5,0.8-2.8,1.6-4.3,2.5V78.3z"/>
<path class="st0" d="M56.1,58.3v12.3c3.6-2.1,7.1-4.1,10.7-6.2C63.2,62.4,59.7,60.4,56.1,58.3z M58.2,62c1.4,0.8,2.8,1.6,4.3,2.5
	c-1.4,0.8-2.8,1.6-4.2,2.5C58.2,65.3,58.2,63.7,58.2,62z"/>
<path class="st0" d="M56.1,42v12.3c3.6-2.1,7.1-4.1,10.6-6.1C63.1,46.1,59.7,44.1,56.1,42z M58.2,45.7c1.5,0.8,2.8,1.6,4.3,2.5
	c-1.4,0.8-2.8,1.6-4.3,2.5V45.7z"/>
<path class="st0" d="M56.2,122.8c0,4.1,0,8.2,0,12.3c3.6-2.1,7.1-4.1,10.6-6.2C63.2,126.9,59.8,124.9,56.2,122.8z M58.3,126.5
	c1.5,0.8,2.8,1.6,4.3,2.5c-1.5,0.8-2.8,1.6-4.3,2.5V126.5z"/>
<path class="st0" d="M56.2,106.5v12.3c3.6-2.1,7.1-4.1,10.7-6.2C63.2,110.6,59.8,108.6,56.2,106.5z M58.3,110.2
	c1.4,0.8,2.8,1.6,4.3,2.5c-1.4,0.8-2.8,1.6-4.3,2.5V110.2z"/>
<path class="st0" d="M56.2,90.2v12.3c3.6-2.1,7.1-4.1,10.6-6.1C63.2,94.3,59.7,92.3,56.2,90.2z M58.3,93.9c1.5,0.8,2.8,1.6,4.3,2.5
	c-1.4,0.8-2.8,1.6-4.3,2.5V93.9z"/>
<path class="st0" d="M56.2,138.6v12.3c3.6-2.1,7.1-4.1,10.6-6.1C63.2,142.6,59.8,140.6,56.2,138.6z M58.3,142.2
	c1.5,0.8,2.8,1.6,4.3,2.5c-1.4,0.8-2.8,1.6-4.3,2.5V142.2z"/>
<path class="st0" d="M56.2,154.8v10.9h2.6c2.7-1.6,5.4-3.1,8.1-4.7C63.3,158.9,59.8,156.9,56.2,154.8z M58.3,163.5
	c0-1.7,0-3.2,0-4.9c1.4,0.8,2.8,1.6,4.3,2.5C61.2,161.8,59.8,162.6,58.3,163.5z"/>
<path class="st0" d="M66.4,0C63,2,59.6,4,56,6V0h2.1v2.3c1.4-0.8,2.6-1.5,4-2.3H66.4z"/>
<path class="st0" d="M57.2,8c3.6,2.1,7.1,4.1,10.7,6.2V1.8C64.3,3.9,60.8,5.9,57.2,8z M65.8,10.4c-1.4-0.8-2.8-1.6-4.3-2.5
	c1.4-0.8,2.8-1.6,4.3-2.5V10.4z"/>
<path class="st0" d="M57.2,24.2c3.6,2.1,7.1,4.1,10.7,6.1V18.1C64.3,20.2,60.8,22.2,57.2,24.2z M61.5,24.2c1.4-0.8,2.8-1.6,4.2-2.5
	c0,1.7,0,3.2,0,4.9C64.3,25.8,62.9,25.1,61.5,24.2z"/>
<path class="st0" d="M57.2,40c3.6,2.1,7.1,4.1,10.7,6.1V33.8C64.3,35.9,60.8,37.9,57.2,40z M61.5,40c1.4-0.8,2.8-1.6,4.2-2.5
	c0,1.7,0,3.2,0,4.9C64.3,41.6,63,40.8,61.5,40z"/>
<path class="st0" d="M57.2,56.3c3.6,2.1,7.1,4.1,10.7,6.2V50.1C64.3,52.2,60.8,54.2,57.2,56.3z M65.8,58.8c-1.4-0.8-2.8-1.6-4.3-2.5
	c1.4-0.8,2.8-1.6,4.3-2.5V58.8z"/>
<path class="st0" d="M57.3,72.6c3.6,2.1,7.1,4.1,10.7,6.2V66.4C64.3,68.5,60.8,70.5,57.3,72.6z M61.5,72.6c1.4-0.8,2.8-1.6,4.2-2.5
	c0,1.7,0,3.2,0,4.9C64.3,74.2,63,73.4,61.5,72.6z"/>
<path class="st0" d="M57.3,88.2c3.6,2.1,7.1,4.1,10.7,6.1V82C64.4,84.1,60.9,86.1,57.3,88.2z M61.6,88.2c1.4-0.8,2.8-1.6,4.2-2.5
	c0,1.7,0,3.2,0,4.9C64.4,89.8,63.1,89,61.6,88.2z"/>
<path class="st0" d="M57.3,104.5c3.6,2.1,7.1,4.1,10.7,6.2V98.3C64.4,100.4,60.9,102.4,57.3,104.5z M65.9,106.9
	c-1.4-0.8-2.8-1.6-4.3-2.5c1.4-0.8,2.8-1.6,4.3-2.5V106.9z"/>
<path class="st0" d="M57.4,120.8c3.6,2.1,7.1,4.1,10.6,6.2v-12.3C64.4,116.7,60.9,118.7,57.4,120.8z M61.6,120.8
	c1.4-0.8,2.8-1.6,4.2-2.5c0,1.7,0,3.2,0,4.9C64.4,122.4,63,121.6,61.6,120.8z"/>
<path class="st0" d="M57.4,136.5c3.6,2.1,7.1,4.1,10.7,6.2v-12.3C64.4,132.5,60.9,134.5,57.4,136.5z M61.7,136.5
	c1.4-0.8,2.8-1.6,4.2-2.4c0,1.7,0,3.2,0,4.9C64.5,138.1,63.1,137.3,61.7,136.5z"/>
<path class="st0" d="M57.3,152.8c3.6,2.1,7.1,4.1,10.7,6.2v-12.3C64.4,148.8,60.9,150.8,57.3,152.8z M65.9,155.3
	c-1.4-0.8-2.8-1.6-4.3-2.5c1.4-0.8,2.8-1.6,4.3-2.5V155.3z"/>
<path class="st0" d="M63.3,165.7c1.6-0.9,3.1-1.8,4.7-2.7v2.7H63.3z"/>
<polygon class="st0" points="68.6,0.6 68.3,0 69.9,0 69.5,0.6 "/>
<polygon class="st0" points="68.7,48.9 68.2,48.1 68.7,47.3 69.6,47.3 70,48.1 69.6,48.9 "/>
<polygon class="st0" points="68.7,97.1 68.3,96.3 68.7,95.5 69.7,95.5 70.1,96.3 69.7,97.1 "/>
<polygon class="st0" points="69.7,143.8 70.2,144.6 69.7,145.4 68.8,145.4 68.3,144.6 68.8,143.8 "/>
<path class="st0" d="M70.2,17.8c0,4.1,0,8.2,0,12.3c3.6-2.1,7.1-4.1,10.6-6.1C77.2,21.8,73.7,19.8,70.2,17.8z M72.3,21.4
	c1.5,0.8,2.8,1.6,4.3,2.5c-1.4,0.8-2.8,1.6-4.3,2.5V21.4z"/>
<path class="st0" d="M70.2,1.8v12.3c3.6-2.1,7.1-4.1,10.7-6.2C77.2,5.9,73.7,3.9,70.2,1.8z M72.3,5.5c1.5,0.8,2.8,1.6,4.3,2.5
	c-1.5,0.8-2.8,1.6-4.3,2.5V5.5z"/>
<path class="st0" d="M70.2,33.9v12.3c3.6-2.1,7.1-4.1,10.7-6.2C77.3,38,73.8,35.9,70.2,33.9z M72.3,37.6c1.4,0.8,2.8,1.6,4.3,2.5
	c-1.4,0.8-2.8,1.6-4.2,2.5C72.3,40.8,72.3,39.3,72.3,37.6z"/>
<path class="st0" d="M70.2,66.1c0,4.1,0,8.2,0,12.3c3.6-2.1,7.1-4.1,10.6-6.1C77.2,70.2,73.8,68.2,70.2,66.1z M72.3,69.8
	c1.5,0.8,2.8,1.6,4.3,2.5c-1.4,0.8-2.8,1.6-4.3,2.5V69.8z"/>
<path class="st0" d="M70.2,50.2v12.3c3.6-2.1,7.1-4.1,10.7-6.2C77.2,54.3,73.8,52.3,70.2,50.2z M72.3,53.9c1.5,0.9,2.8,1.6,4.3,2.5
	c-1.5,0.8-2.8,1.6-4.3,2.5V53.9z"/>
<path class="st0" d="M70.3,82.1v12.3c3.6-2.1,7.1-4.1,10.7-6.2C77.3,86.1,73.9,84.1,70.3,82.1z M72.4,85.8c1.4,0.8,2.8,1.6,4.3,2.5
	c-1.4,0.8-2.8,1.6-4.2,2.5C72.4,89,72.4,87.5,72.4,85.8z"/>
<path class="st0" d="M70.3,114.3c0,4.1,0,8.2,0,12.3c3.6-2.1,7.1-4.1,10.6-6.1C77.3,118.4,73.8,116.3,70.3,114.3z M72.4,118
	c1.5,0.8,2.8,1.6,4.3,2.5c-1.4,0.8-2.8,1.6-4.3,2.5V118z"/>
<path class="st0" d="M70.3,98.4v12.3c3.6-2.1,7.1-4.1,10.7-6.2C77.3,102.5,73.9,100.4,70.3,98.4z M72.4,102.1
	c1.5,0.8,2.8,1.6,4.3,2.5c-1.5,0.8-2.8,1.6-4.3,2.5V102.1z"/>
<path class="st0" d="M70.3,130.4v12.3c3.6-2.1,7.1-4.1,10.7-6.2C77.4,134.5,73.9,132.5,70.3,130.4z M72.4,134.1
	c1.4,0.8,2.8,1.6,4.3,2.5c-1.4,0.8-2.8,1.6-4.2,2.5C72.4,137.4,72.4,135.8,72.4,134.1z"/>
<path class="st0" d="M70.3,146.7V159c3.6-2.1,7.1-4.1,10.7-6.2C77.4,150.8,73.9,148.8,70.3,146.7z M72.4,150.4
	c1.5,0.8,2.8,1.6,4.3,2.5c-1.5,0.8-2.8,1.6-4.3,2.5V150.4z"/>
<path class="st0" d="M70.3,162.6c1.8,1,3.5,2,5.3,3h-5.3V162.6z"/>
<path class="st0" d="M82,0v6c-3.4-2-6.8-4-10.3-6h4.3c1.3,0.8,2.6,1.5,3.9,2.3V0H82z"/>
<path class="st0" d="M71.3,15.7c3.6,2.1,7.1,4.1,10.6,6.2V9.6C78.4,11.6,74.9,13.7,71.3,15.7z M79.9,18.1c-1.4-0.8-2.8-1.6-4.2-2.5
	c1.4-0.8,2.8-1.6,4.2-2.4V18.1z"/>
<path class="st0" d="M82,25.9c-3.6,2.1-7.1,4.1-10.7,6.2c3.6,2.1,7.1,4.1,10.7,6.2C82,34,82,30,82,25.9z M79.9,34.5
	c-1.4-0.8-2.8-1.6-4.3-2.5c1.4-0.8,2.8-1.6,4.3-2.5V34.5z"/>
<path class="st0" d="M71.4,48.1c3.6,2.1,7.1,4.1,10.7,6.2V42C78.4,44.1,74.9,46.1,71.4,48.1z M75.6,48.1c1.4-0.8,2.8-1.6,4.2-2.5
	c0,1.7,0,3.2,0,4.9C78.4,49.8,77.1,49,75.6,48.1z"/>
<path class="st0" d="M71.4,64.1c3.6,2.1,7.1,4.1,10.7,6.1V57.9C78.4,60,74.9,62,71.4,64.1z M75.7,64c1.4-0.8,2.8-1.6,4.2-2.5
	c0,1.7,0,3.2,0,4.9C78.5,65.7,77.1,64.9,75.7,64z"/>
<path class="st0" d="M71.3,80.4c3.6,2.1,7.1,4.1,10.7,6.2V74.2C78.4,76.3,74.9,78.3,71.3,80.4z M79.9,82.8c-1.4-0.8-2.8-1.6-4.3-2.5
	c1.4-0.8,2.8-1.6,4.3-2.5V82.8z"/>
<path class="st0" d="M71.5,96.3c3.6,2.1,7.1,4.1,10.7,6.2V90.2C78.5,92.3,75,94.3,71.5,96.3z M75.7,96.3c1.4-0.8,2.8-1.6,4.2-2.5
	c0,1.7,0,3.2,0,4.9C78.5,97.9,77.2,97.2,75.7,96.3z"/>
<path class="st0" d="M71.5,112.2c3.6,2.1,7.1,4.1,10.7,6.1v-12.3C78.5,108.2,75,110.2,71.5,112.2z M80,114.7
	c-1.4-0.8-2.8-1.6-4.2-2.4c1.4-0.8,2.8-1.6,4.2-2.5V114.7z"/>
<path class="st0" d="M82.1,122.4c-3.6,2.1-7.1,4.1-10.7,6.2c3.6,2.1,7.1,4.1,10.7,6.2C82.1,130.6,82.1,126.5,82.1,122.4z M80,131
	c-1.4-0.8-2.8-1.6-4.3-2.5c1.4-0.8,2.8-1.6,4.3-2.5V131z"/>
<path class="st0" d="M71.5,144.7c3.6,2.1,7.1,4.1,10.6,6.1v-12.3C78.5,140.6,75,142.6,71.5,144.7z M75.8,144.7
	c1.4-0.8,2.8-1.6,4.2-2.5c0,1.7,0,3.2,0,4.9C78.5,146.3,77.2,145.5,75.8,144.7z"/>
<path class="st0" d="M71.5,160.6c3,1.7,5.9,3.4,8.8,5.1h1.8v-11.2C78.5,156.5,75,158.5,71.5,160.6z M75.8,160.6
	c1.4-0.8,2.8-1.6,4.2-2.4c0,1.7,0,3.2,0,4.9C78.6,162.2,77.2,161.4,75.8,160.6z"/>
<polygon class="st0" points="82.7,24.6 82.3,23.8 82.7,23 83.7,23 84.1,23.8 83.7,24.6 "/>
<polygon class="st0" points="82.8,73 82.3,72.2 82.8,71.4 83.7,71.4 84.2,72.2 83.7,73 "/>
<polygon class="st0" points="84.2,120.3 83.8,121.1 82.8,121.1 82.4,120.3 82.8,119.5 83.8,119.5 "/>
<path class="st0" d="M84,42.2c0,4.1,0,8.1,0,12.3c3.6-2.1,7.1-4.1,10.6-6.1C91,46.3,87.5,44.3,84,42.2z M86.1,45.9
	c1.4,0.8,2.8,1.6,4.3,2.5c-1.4,0.8-2.8,1.6-4.3,2.5V45.9z"/>
<path class="st0" d="M84,90.4c0,4.1,0,8.1,0,12.3c3.6-2.1,7.1-4.1,10.6-6.1C91.1,94.5,87.6,92.5,84,90.4z M86.2,94.1
	c1.5,0.8,2.8,1.6,4.3,2.5c-1.4,0.8-2.8,1.6-4.3,2.5V94.1z"/>
<path class="st0" d="M84.1,138.8c0,4.1,0,8.2,0,12.3c3.6-2.1,7.1-4.1,10.6-6.1C91.1,142.8,87.7,140.8,84.1,138.8z M86.2,142.4
	c1.5,0.8,2.8,1.6,4.3,2.5c-1.4,0.8-2.8,1.6-4.3,2.5V142.4z"/>
<path class="st0" d="M84.3,25.9c0,4.1,0,8.2,0,12.3c3.6-2.1,7.1-4.1,10.6-6.2C91.3,30,87.9,28,84.3,25.9z M86.4,29.6
	c1.5,0.8,2.8,1.6,4.3,2.5c-1.5,0.8-2.8,1.6-4.3,2.5V29.6z"/>
<path class="st0" d="M84.3,9.6v12.3c3.6-2.1,7.1-4.1,10.7-6.2C91.3,13.7,87.9,11.7,84.3,9.6z M86.4,13.3c1.4,0.8,2.8,1.6,4.3,2.5
	c-1.4,0.8-2.8,1.6-4.3,2.5V13.3z"/>
<path class="st0" d="M84.3,74.3c0,4.1,0,8.2,0,12.3c3.6-2.1,7.1-4.1,10.7-6.2C91.4,78.3,87.9,76.3,84.3,74.3z M86.4,77.9
	c1.5,0.8,2.8,1.6,4.3,2.5c-1.5,0.8-2.8,1.6-4.3,2.5C86.4,81.2,86.4,79.6,86.4,77.9z"/>
<path class="st0" d="M84.3,57.9v12.3c3.6-2.1,7.1-4.1,10.7-6.2C91.4,62,87.9,60,84.3,57.9z M86.4,61.7c1.4,0.8,2.8,1.6,4.3,2.5
	c-1.4,0.8-2.8,1.6-4.3,2.5V61.7z"/>
<path class="st0" d="M84.4,122.4c0,4.1,0,8.1,0,12.3c3.6-2.1,7.1-4.1,10.7-6.2C91.5,126.5,88,124.5,84.4,122.4z M86.5,126.1
	c1.5,0.8,2.8,1.6,4.3,2.5c-1.5,0.9-2.8,1.6-4.3,2.5V126.1z"/>
<path class="st0" d="M84.4,106.1v12.3c3.6-2.1,7.1-4.1,10.7-6.2C91.5,110.2,88,108.2,84.4,106.1z M86.5,109.8
	c1.4,0.8,2.8,1.6,4.3,2.5c-1.4,0.8-2.8,1.6-4.3,2.5V109.8z"/>
<path class="st0" d="M84.4,154.5v11.2h1.9c2.9-1.7,5.8-3.4,8.7-5.1C91.5,158.5,88,156.5,84.4,154.5z M86.5,158.2
	c1.4,0.8,2.8,1.6,4.3,2.5c-1.4,0.8-2.8,1.6-4.3,2.5V158.2z"/>
<path class="st0" d="M94.6,0c-3.6,2-7,4-10.6,6.1c0-2.1,0-4.1,0-6.2h2.1v2.5c1.5-0.9,2.8-1.6,4.3-2.5c0,0,0,0,0,0L94.6,0
	C94.5,0,94.6,0,94.6,0z"/>
<path class="st0" d="M85.1,8.2c3.6,2.1,7.1,4.1,10.7,6.2V2C92.2,4.1,88.7,6.1,85.1,8.2z M93.7,10.6c-1.4-0.8-2.8-1.6-4.3-2.5
	c1.4-0.8,2.8-1.6,4.3-2.5V10.6z"/>
<path class="st0" d="M85.2,40.2c3.6,2.1,7.1,4.1,10.6,6.2V34C92.2,36.1,88.7,38.1,85.2,40.2z M89.4,40.2c1.4-0.8,2.7-1.6,4.2-2.4
	c0,1.7,0,3.2,0,4.9C92.2,41.8,90.9,41,89.4,40.2z"/>
<path class="st0" d="M85.1,56.5c3.6,2.1,7.1,4.1,10.7,6.2V50.3C92.2,52.4,88.7,54.4,85.1,56.5z M93.7,58.9c-1.4-0.8-2.8-1.6-4.3-2.5
	c1.4-0.8,2.8-1.6,4.3-2.5V58.9z"/>
<path class="st0" d="M85.2,88.4c3.6,2.1,7.1,4.1,10.6,6.2V82.2C92.3,84.3,88.8,86.3,85.2,88.4z M89.5,88.4c1.4-0.8,2.7-1.6,4.2-2.4
	c0,1.7,0,3.2,0,4.9C92.3,90,91,89.2,89.5,88.4z"/>
<path class="st0" d="M85.2,104.7c3.6,2.1,7.1,4.1,10.7,6.2V98.5C92.3,100.6,88.8,102.6,85.2,104.7z M93.8,107.1
	c-1.4-0.8-2.8-1.6-4.3-2.5c1.4-0.8,2.8-1.6,4.3-2.5V107.1z"/>
<path class="st0" d="M85.3,136.7c3.6,2.1,7.1,4.1,10.7,6.2v-12.3C92.3,132.6,88.8,134.7,85.3,136.7z M89.5,136.7
	c1.4-0.8,2.7-1.6,4.2-2.5c0,1.7,0,3.2,0,4.9C92.3,138.3,91,137.5,89.5,136.7z"/>
<path class="st0" d="M85.2,153c3.6,2.1,7.1,4.1,10.7,6.2v-12.3C92.3,148.9,88.8,151,85.2,153z M93.8,155.5c-1.4-0.8-2.8-1.6-4.3-2.5
	c1.4-0.8,2.8-1.6,4.3-2.5V155.5z"/>
<path class="st0" d="M96.1,17.7c-3.6,2.1-7.1,4.1-10.6,6.2C89,25.9,92.5,28,96.1,30C96.1,25.9,96.1,21.9,96.1,17.7z M89.7,23.9
	c1.4-0.8,2.8-1.6,4.2-2.5c0,1.7,0,3.2,0,4.9C92.5,25.5,91.2,24.7,89.7,23.9z"/>
<path class="st0" d="M96.1,66.1c-3.6,2.1-7.1,4.1-10.6,6.1c3.6,2.1,7.1,4.1,10.7,6.2C96.1,74.2,96.1,70.2,96.1,66.1z M89.8,72.2
	c1.4-0.8,2.8-1.6,4.2-2.5c0,1.7,0,3.2,0,4.9C92.5,73.8,91.2,73,89.8,72.2z"/>
<path class="st0" d="M96.2,114.2c-3.6,2.1-7.1,4.1-10.6,6.1c3.6,2.1,7.1,4.1,10.7,6.2C96.2,122.4,96.2,118.4,96.2,114.2z
	 M89.8,120.4c1.4-0.8,2.8-1.6,4.2-2.4c0,1.7,0,3.2,0,4.9C92.6,122,91.3,121.2,89.8,120.4z"/>
<path class="st0" d="M90.9,165.7c1.8-1,3.5-2.1,5.3-3.1v3.1H90.9z"/>
<polygon class="st0" points="96.5,0.8 96.1,0 97.9,0 97.4,0.8 "/>
<polygon class="st0" points="97.5,47.5 97.9,48.3 97.5,49.1 96.5,49.1 96.1,48.3 96.5,47.5 "/>
<polygon class="st0" points="96.6,97.3 96.2,96.5 96.6,95.7 97.5,95.7 98,96.5 97.5,97.3 "/>
<polygon class="st0" points="97.6,144 98,144.8 97.6,145.6 96.7,145.6 96.2,144.8 96.7,144 "/>
<path class="st0" d="M98,17.8c0,4.1,0,8.2,0,12.3c3.6-2.1,7.1-4.1,10.6-6.1C105,21.9,101.5,19.9,98,17.8z M100.1,21.5
	c1.5,0.8,2.8,1.6,4.3,2.5c-1.4,0.8-2.8,1.6-4.3,2.5V21.5z"/>
<path class="st0" d="M98,66.1c0,4.1,0,8.2,0,12.3c3.6-2.1,7.1-4.1,10.6-6.1C105.1,70.2,101.6,68.2,98,66.1z M100.2,69.8
	c1.5,0.8,2.8,1.6,4.3,2.5c-1.4,0.8-2.8,1.6-4.3,2.5V69.8z"/>
<path class="st0" d="M98,2c0,4.1,0,8.1,0,12.3c3.6-2.1,7.1-4.1,10.7-6.2C105.1,6.1,101.6,4.1,98,2z M100.2,5.7
	c1.5,0.8,2.8,1.6,4.3,2.5c-1.5,0.9-2.8,1.6-4.3,2.5V5.7z"/>
<path class="st0" d="M98.1,50.4c0,4.1,0,8.2,0,12.3c3.6-2.1,7.1-4.1,10.6-6.1C105.2,54.5,101.7,52.5,98.1,50.4z M100.2,54.1
	c1.5,0.8,2.8,1.6,4.3,2.5c-1.5,0.8-2.8,1.6-4.3,2.5V54.1z"/>
<path class="st0" d="M98.1,34.1v12.3c3.6-2.1,7.1-4.1,10.7-6.2C105.2,38.2,101.7,36.1,98.1,34.1z M100.2,37.8
	c1.4,0.8,2.8,1.6,4.3,2.5c-1.4,0.8-2.8,1.6-4.3,2.5V37.8z"/>
<path class="st0" d="M98.1,114.3c0,4.1,0,8.2,0,12.3c3.6-2.1,7.1-4.1,10.6-6.1C105.2,118.4,101.7,116.4,98.1,114.3z M100.2,118
	c1.4,0.8,2.8,1.6,4.3,2.5c-1.4,0.8-2.8,1.6-4.3,2.5V118z"/>
<path class="st0" d="M98.2,98.6c0,4.1,0,8.2,0,12.3c3.6-2.1,7.1-4.1,10.6-6.1C105.2,102.6,101.8,100.6,98.2,98.6z M100.3,102.3
	c1.5,0.8,2.8,1.6,4.3,2.5c-1.5,0.8-2.8,1.6-4.3,2.5C100.3,105.5,100.3,103.9,100.3,102.3z"/>
<path class="st0" d="M98.2,82.3v12.3c3.6-2.1,7.1-4.1,10.7-6.2C105.2,86.3,101.8,84.3,98.2,82.3z M100.3,86c1.4,0.8,2.8,1.6,4.3,2.5
	c-1.4,0.8-2.8,1.6-4.3,2.4V86z"/>
<path class="st0" d="M98.2,146.9c0,4.1,0,8.1,0,12.3c3.6-2.1,7.1-4.1,10.7-6.2C105.3,151,101.8,149,98.2,146.9z M100.3,150.6
	c1.5,0.8,2.8,1.6,4.3,2.5c-1.5,0.9-2.8,1.6-4.3,2.5V150.6z"/>
<path class="st0" d="M98.2,130.6v12.3c3.6-2.1,7.1-4.1,10.7-6.2C105.3,134.7,101.8,132.7,98.2,130.6z M100.3,134.3
	c1.4,0.8,2.8,1.6,4.3,2.5c-1.4,0.8-2.8,1.6-4.3,2.5V134.3z"/>
<path class="st0" d="M98.1,162.7c1.8,1,3.5,2,5.2,3h-5.2V162.7z"/>
<path class="st0" d="M99.2,15.8c3.6,2.1,7.1,4.1,10.7,6.1V9.6C106.2,11.7,102.7,13.7,99.2,15.8z M103.5,15.7
	c1.4-0.8,2.8-1.6,4.2-2.5c0,1.7,0,3.2,0,4.9C106.2,17.3,104.9,16.6,103.5,15.7z"/>
<path class="st0" d="M99.1,32.1c3.6,2.1,7.1,4.1,10.7,6.2V25.9C106.2,28,102.7,30,99.1,32.1z M107.7,34.5c-1.4-0.8-2.8-1.6-4.3-2.5
	c1.4-0.8,2.8-1.6,4.3-2.5V34.5z"/>
<path class="st0" d="M99.2,64.1c3.6,2.1,7.1,4.1,10.7,6.2V57.9C106.2,60,102.8,62,99.2,64.1z M103.5,64.1c1.4-0.8,2.8-1.6,4.2-2.4
	c0,1.7,0,3.2,0,4.9C106.3,65.7,104.9,64.9,103.5,64.1z"/>
<path class="st0" d="M99.2,80.4c3.6,2.1,7.1,4.1,10.7,6.2V74.2C106.2,76.3,102.8,78.3,99.2,80.4z M107.7,82.8
	c-1.4-0.8-2.8-1.6-4.3-2.5c1.4-0.8,2.8-1.6,4.3-2.5V82.8z"/>
<path class="st0" d="M109.9,0v6.1c-3.6-2.1-7.1-4.1-10.7-6.1h4.3c1.4,0.8,2.8,1.6,4.2,2.5V0H109.9z"/>
<path class="st0" d="M99.3,48.3c3.6,2.1,7.1,4.1,10.7,6.2V42.2C106.3,44.3,102.8,46.3,99.3,48.3z M103.5,48.3
	c1.4-0.8,2.8-1.6,4.2-2.5c0,1.7,0,3.2,0,4.9C106.3,50,105,49.2,103.5,48.3z"/>
<path class="st0" d="M99.3,112.3c3.6,2.1,7.1,4.1,10.7,6.2v-12.3C106.3,108.2,102.8,110.2,99.3,112.3z M103.6,112.3
	c1.4-0.8,2.8-1.6,4.2-2.4c0,1.7,0,3.2,0,4.9C106.4,113.9,105,113.1,103.6,112.3z"/>
<path class="st0" d="M99.2,128.6c3.6,2.1,7.1,4.1,10.7,6.2v-12.3C106.3,124.5,102.8,126.5,99.2,128.6z M107.8,131
	c-1.4-0.8-2.8-1.6-4.3-2.5c1.4-0.8,2.8-1.6,4.3-2.5V131z"/>
<path class="st0" d="M99.3,160.6c3,1.7,5.9,3.4,8.8,5.1h1.9v-11.2C106.4,156.6,102.9,158.6,99.3,160.6z M103.6,160.6
	c1.4-0.8,2.8-1.6,4.2-2.5c0,1.7,0,3.2,0,4.9C106.4,162.2,105,161.4,103.6,160.6z"/>
<path class="st0" d="M110,90.4c-3.6,2.1-7.1,4.1-10.6,6.2c3.6,2.1,7.1,4.1,10.6,6.2C110,98.5,110,94.5,110,90.4z M103.6,96.5
	c1.4-0.8,2.8-1.6,4.2-2.5c0,1.7,0,3.2,0,4.9C106.4,98.1,105,97.4,103.6,96.5z"/>
<path class="st0" d="M99.4,144.9c3.6,2.1,7.1,4.1,10.7,6.1v-12.3C106.4,140.8,102.9,142.8,99.4,144.9z M103.7,144.9
	c1.4-0.8,2.8-1.6,4.2-2.5c0,1.7,0,3.2,0,4.9C106.4,146.5,105.1,145.7,103.7,144.9z"/>
<polygon class="st0" points="110.5,24.7 110.1,23.8 110.5,23 111.5,23 112,23.8 111.5,24.7 "/>
<polygon class="st0" points="110.6,73 110.1,72.2 110.6,71.4 111.5,71.4 112,72.2 111.5,73 "/>
<polygon class="st0" points="111.6,119.6 112.1,120.4 111.6,121.2 110.7,121.2 110.2,120.4 110.7,119.6 "/>
<path class="st0" d="M112,42.4c0,4.1,0,8.2,0,12.3c3.6-2.1,7.1-4.1,10.6-6.1C119.1,46.4,115.6,44.4,112,42.4z M114.2,46
	c1.5,0.8,2.8,1.6,4.3,2.5c-1.4,0.8-2.8,1.6-4.3,2.5C114.1,49.3,114.2,47.7,114.2,46z"/>
<path class="st0" d="M112.1,90.6c0,4.1,0,8.1,0,12.3c3.6-2.1,7.1-4.1,10.6-6.1C119.1,94.6,115.7,92.6,112.1,90.6z M114.2,94.2
	c1.4,0.8,2.8,1.6,4.3,2.5c-1.4,0.8-2.8,1.6-4.3,2.5C114.2,97.5,114.2,95.9,114.2,94.2z"/>
<path class="st0" d="M112.1,25.9v12.3c3.6-2.1,7.1-4.1,10.6-6.2C119.2,30,115.7,28,112.1,25.9z M114.2,29.6c1.5,0.9,2.8,1.6,4.3,2.5
	c-1.5,0.8-2.8,1.6-4.3,2.5V29.6z"/>
<path class="st0" d="M112.1,9.6V22c3.6-2.1,7.1-4.1,10.7-6.2C119.2,13.7,115.7,11.7,112.1,9.6z M114.2,13.4c1.4,0.8,2.8,1.6,4.3,2.5
	c-1.4,0.8-2.8,1.6-4.2,2.5C114.2,16.6,114.2,15,114.2,13.4z"/>
<path class="st0" d="M112.1,138.9c0,4.1,0,8.2,0,12.3c3.6-2.1,7.1-4.1,10.6-6.1C119.2,143,115.7,141,112.1,138.9z M114.3,142.6
	c1.5,0.8,2.8,1.6,4.3,2.5c-1.4,0.8-2.8,1.6-4.3,2.5C114.2,145.8,114.3,144.2,114.3,142.6z"/>
<path class="st0" d="M112.1,74.3v12.3c3.6-2.1,7.1-4.1,10.7-6.2C119.2,78.4,115.7,76.4,112.1,74.3z M114.3,78
	c1.5,0.8,2.8,1.6,4.3,2.5c-1.5,0.9-2.8,1.6-4.3,2.5V78z"/>
<path class="st0" d="M112.1,58v12.3c3.6-2.1,7.1-4.1,10.7-6.2C119.2,62.1,115.7,60,112.1,58z M114.2,61.7c1.4,0.8,2.8,1.6,4.3,2.5
	c-1.4,0.8-2.8,1.6-4.2,2.5C114.2,64.9,114.2,63.4,114.2,61.7z"/>
<path class="st0" d="M112.2,122.5c0,4.1,0,8.2,0,12.3c3.6-2.1,7.1-4.1,10.7-6.2C119.3,126.5,115.8,124.5,112.2,122.5z M114.3,126.2
	c1.5,0.8,2.8,1.6,4.3,2.5c-1.5,0.8-2.8,1.6-4.3,2.5V126.2z"/>
<path class="st0" d="M112.2,106.2v12.3c3.6-2.1,7.1-4.1,10.7-6.2C119.3,110.2,115.8,108.2,112.2,106.2z M114.3,109.9
	c1.4,0.8,2.8,1.6,4.3,2.5c-1.4,0.8-2.8,1.6-4.2,2.5C114.3,113.1,114.3,111.6,114.3,109.9z"/>
<path class="st0" d="M112.2,154.5v11.2h2c2.9-1.7,5.8-3.3,8.7-5C119.3,158.6,115.8,156.6,112.2,154.5z M114.4,158.2
	c1.4,0.8,2.8,1.6,4.3,2.5c-1.4,0.8-2.8,1.6-4.2,2.4C114.4,161.5,114.4,159.9,114.4,158.2z"/>
<path class="st0" d="M122.6,0.2c-3.6,2-7,4.1-10.6,6.1c0-2.1,0-4.2,0-6.3h2.1c0,0.9,0,1.7,0,2.6c1.5-0.8,2.8-1.6,4.3-2.5
	c-0.1-0.1-0.2-0.1-0.3-0.2h4.2C122.4,0.1,122.5,0.1,122.6,0.2z"/>
<path class="st0" d="M123.8,2.1c-3.6,2.1-7.1,4.1-10.7,6.2c3.6,2.1,7.1,4.1,10.7,6.2C123.8,10.3,123.8,6.3,123.8,2.1z M117.4,8.3
	c1.4-0.8,2.8-1.6,4.2-2.5c0,1.7,0,3.3,0,4.9C120.2,9.9,118.9,9.1,117.4,8.3z"/>
<path class="st0" d="M113.2,40.3c3.6,2.1,7.1,4.1,10.7,6.2V34.2C120.2,36.3,116.8,38.3,113.2,40.3z M117.5,40.3
	c1.4-0.8,2.8-1.6,4.2-2.4c0,1.7,0,3.2,0,4.9C120.3,41.9,118.9,41.1,117.5,40.3z"/>
<path class="st0" d="M123.8,50.5c-3.6,2.1-7.1,4.1-10.7,6.2c3.6,2.1,7.1,4.1,10.7,6.2C123.9,58.7,123.8,54.6,123.8,50.5z
	 M117.5,56.6c1.4-0.8,2.8-1.6,4.2-2.5c0,1.7,0,3.3,0,4.9C120.3,58.2,118.9,57.5,117.5,56.6z"/>
<path class="st0" d="M113.3,88.5c3.6,2.1,7.1,4.1,10.7,6.2V82.4C120.3,84.4,116.8,86.4,113.3,88.5z M117.5,88.5
	c1.4-0.8,2.8-1.6,4.2-2.4c0,1.7,0,3.2,0,4.9C120.4,90.1,119,89.3,117.5,88.5z"/>
<path class="st0" d="M123.9,98.6c-3.6,2.1-7.1,4.1-10.7,6.2c3.6,2.1,7.1,4.1,10.7,6.2C123.9,106.8,123.9,102.8,123.9,98.6z
	 M121.8,107.3c-1.4-0.8-2.8-1.6-4.2-2.5c1.4-0.8,2.8-1.6,4.2-2.5V107.3z"/>
<path class="st0" d="M113.3,23.9c3.6,2.1,7.1,4.1,10.6,6.2V17.8C120.3,19.8,116.8,21.9,113.3,23.9z M117.5,23.9
	c1.4-0.8,2.8-1.6,4.2-2.5c0,1.7,0,3.2,0,4.9C120.4,25.5,119,24.7,117.5,23.9z"/>
<path class="st0" d="M113.3,136.9c3.6,2.1,7.1,4.1,10.7,6.1v-12.3C120.3,132.8,116.9,134.8,113.3,136.9z M117.6,136.8
	c1.4-0.8,2.8-1.6,4.2-2.4c0,1.7,0,3.2,0,4.9C120.4,138.5,119,137.7,117.6,136.8z"/>
<path class="st0" d="M124,147c-3.6,2.1-7.1,4.1-10.7,6.2c3.6,2.1,7.1,4.1,10.7,6.2C124,155.2,124,151.1,124,147z M117.6,153.1
	c1.4-0.8,2.8-1.6,4.2-2.5c0,1.7,0,3.3,0,4.9C120.4,154.8,119,154,117.6,153.1z"/>
<path class="st0" d="M113.3,72.2c3.6,2.1,7.1,4.1,10.7,6.1V66.1C120.3,68.2,116.9,70.2,113.3,72.2z M117.6,72.2
	c1.4-0.8,2.8-1.6,4.2-2.5c0,1.7,0,3.2,0,4.9C120.4,73.9,119,73.1,117.6,72.2z"/>
<path class="st0" d="M113.4,120.4c3.6,2.1,7.1,4.1,10.7,6.1v-12.3C120.4,116.4,116.9,118.4,113.4,120.4z M117.7,120.4
	c1.4-0.8,2.8-1.6,4.2-2.5c0,1.7,0,3.2,0,4.9C120.5,122,119.1,121.3,117.7,120.4z"/>
<path class="st0" d="M118.8,165.7c1.7-1,3.5-2,5.3-3.1v3.1H118.8z"/>
<polygon class="st0" points="124.5,0.9 124.1,0.1 124.1,0 125.9,0 125.9,0.1 125.5,0.9 "/>
<polygon class="st0" points="124.6,49.2 124.1,48.4 124.6,47.6 125.5,47.6 126,48.4 125.5,49.2 "/>
<polygon class="st0" points="124.7,97.4 124.2,96.6 124.7,95.8 125.6,95.8 126,96.6 125.6,97.4 "/>
<polygon class="st0" points="125.6,144.1 126.1,145 125.6,145.8 124.7,145.8 124.2,145 124.7,144.1 "/>
<path class="st0" d="M130.4,0v2c-1-0.6-2.1-1.2-3.2-1.8c0.1,0,0.2-0.1,0.2-0.1H130.4z"/>
<path class="st0" d="M128.2,5.9v4.9c0.8-0.4,1.5-0.9,2.2-1.3V12c-1.4,0.8-2.9,1.7-4.3,2.5V2.2c1.5,0.8,2.9,1.7,4.3,2.5v2.5
	C129.7,6.7,129,6.3,128.2,5.9z"/>
<path class="st0" d="M127.3,16c1.1-0.6,2.1-1.2,3.2-1.8v3.7C129.4,17.3,128.3,16.7,127.3,16z"/>
<path class="st0" d="M128.2,21.8v4.9c0.8-0.4,1.5-0.9,2.2-1.3v2.5c-1.4,0.8-2.9,1.7-4.3,2.5V18.1c1.5,0.8,2.9,1.7,4.3,2.5V23
	C129.7,22.6,129,22.2,128.2,21.8z"/>
<path class="st0" d="M127.2,32.3c1.1-0.6,2.1-1.2,3.2-1.8v3.7C129.4,33.6,128.3,33,127.2,32.3z"/>
<path class="st0" d="M128.2,37.9v4.9c0.8-0.4,1.5-0.8,2.2-1.3V44c-1.4,0.8-2.9,1.6-4.3,2.5V34.2c1.5,0.8,2.9,1.7,4.3,2.5v2.5
	C129.7,38.8,129,38.4,128.2,37.9z"/>
<path class="st0" d="M127.3,48.5c1.1-0.6,2.1-1.2,3.1-1.8v3.6C129.4,49.7,128.4,49.1,127.3,48.5z"/>
<path class="st0" d="M128.2,54.2v4.9c0.8-0.4,1.5-0.8,2.2-1.2v2.5c-1.4,0.8-2.9,1.7-4.3,2.5V50.5c1.5,0.8,2.9,1.7,4.3,2.5v2.5
	C129.7,55.1,129,54.6,128.2,54.2z"/>
<path class="st0" d="M127.3,64.4c1.1-0.6,2.1-1.2,3.1-1.8v3.6C129.4,65.6,128.4,65,127.3,64.4z"/>
<path class="st0" d="M128.3,70.1V75c0.8-0.4,1.5-0.8,2.2-1.3v2.5c-1.4,0.8-2.9,1.6-4.3,2.5V66.4c1.5,0.8,2.9,1.7,4.3,2.5v2.4
	C129.7,70.9,129,70.5,128.3,70.1z"/>
<path class="st0" d="M127.3,80.7c1.1-0.6,2.1-1.2,3.2-1.8v3.7C129.4,81.9,128.3,81.3,127.3,80.7z"/>
<path class="st0" d="M128.3,86.1V91c0.7-0.4,1.4-0.8,2.1-1.2v2.5c-1.4,0.8-2.8,1.6-4.2,2.5V82.4c1.4,0.8,2.8,1.6,4.2,2.5v2.5
	C129.7,86.9,129,86.5,128.3,86.1z"/>
<path class="st0" d="M127.4,96.7c1-0.6,2-1.2,3-1.8v3.5C129.4,97.8,128.4,97.2,127.4,96.7z"/>
<path class="st0" d="M128.3,102.4v4.9c0.7-0.4,1.4-0.8,2.1-1.2v2.4c-1.4,0.8-2.8,1.6-4.2,2.4V98.7c1.4,0.8,2.8,1.6,4.2,2.5v2.5
	C129.8,103.2,129,102.8,128.3,102.4z"/>
<path class="st0" d="M127.4,112.6c1-0.6,2-1.2,3.1-1.8v3.5C129.4,113.8,128.4,113.2,127.4,112.6z"/>
<path class="st0" d="M128.3,118.3v4.9c0.7-0.4,1.4-0.8,2.1-1.2v2.5c-1.4,0.8-2.8,1.6-4.2,2.4v-12.3c1.4,0.8,2.8,1.6,4.2,2.4v2.4
	C129.8,119.1,129.1,118.7,128.3,118.3z"/>
<path class="st0" d="M127.4,128.9c1-0.6,2.1-1.2,3.1-1.8v3.6C129.4,130.1,128.4,129.5,127.4,128.9z"/>
<path class="st0" d="M128.4,134.5v4.9c0.7-0.4,1.4-0.8,2.1-1.2v2.4c-1.4,0.8-2.8,1.6-4.2,2.4v-12.3c1.4,0.8,2.8,1.6,4.2,2.4v2.5
	C129.8,135.3,129.1,134.9,128.4,134.5z"/>
<path class="st0" d="M127.4,145c1-0.6,2-1.2,3-1.7v3.5C129.4,146.2,128.4,145.6,127.4,145z"/>
<path class="st0" d="M128.4,150.7v4.9c0.7-0.4,1.4-0.8,2.1-1.2v2.5c-1.4,0.8-2.8,1.6-4.2,2.4V147c1.4,0.8,2.8,1.6,4.2,2.4v2.5
	C129.8,151.5,129.1,151.1,128.4,150.7z"/>
<path class="st0" d="M127.4,160.9c1-0.6,2-1.2,3-1.8v3.5C129.4,162.1,128.4,161.5,127.4,160.9z"/>
<path class="st0" d="M126.2,163c1.4,0.8,2.8,1.6,4.2,2.4v0.3h-4.2V163z"/>
</svg>
