<?xml version="1.0" encoding="utf-8"?>
<!-- Generator: Adobe Illustrator 25.4.1, SVG Export Plug-In . SVG Version: 6.00 Build 0)  -->
<svg version="1.1" id="Layer_1" xmlns="http://www.w3.org/2000/svg" xmlns:xlink="http://www.w3.org/1999/xlink" x="0px" y="0px"
	 viewBox="0 0 123.5 26.8" style="enable-background:new 0 0 123.5 26.8;" xml:space="preserve">
<style type="text/css">
	.st0{fill:#2C2926;}
</style>
<g>
	<g>
		<path class="st0" d="M14.8,15.7c2.1,3.7,4.2,7.3,6.4,11c-4.3,0-8.4,0-12.7,0C10.5,23.1,12.6,19.5,14.8,15.7z M12.2,24.5
			c1.8,0,3.4,0,5.1,0c-0.9-1.5-1.7-2.9-2.5-4.4C13.9,21.7,13.1,23.1,12.2,24.5z"/>
		<path class="st0" d="M23.2,25.6c-2.2-3.7-4.2-7.3-6.4-11c4.3,0,8.4,0,12.7,0C27.4,18.3,25.4,21.9,23.2,25.6z M25.7,16.8
			c-1.7,0-3.3,0-5.1,0c0.9,1.5,1.7,2.9,2.5,4.4C24.1,19.7,24.9,18.3,25.7,16.8z"/>
		<path class="st0" d="M6.4,25.6c-2.1-3.7-4.2-7.3-6.4-11c4.3,0,8.4,0,12.7,0C10.6,18.3,8.5,21.9,6.4,25.6z M3.8,16.8
			c0.9,1.5,1.7,2.9,2.5,4.4c0.9-1.5,1.7-2.9,2.5-4.4C7.2,16.8,5.6,16.8,3.8,16.8z"/>
		<path class="st0" d="M21.2,0c-2.1,3.7-4.2,7.3-6.4,11c-2.1-3.7-4.2-7.3-6.4-11C12.7,0,16.9,0,21.2,0z M14.8,6.6
			c0.9-1.5,1.7-2.9,2.5-4.4c-1.8,0-3.4,0-5.1,0C13.1,3.7,13.9,5.1,14.8,6.6z"/>
		<path class="st0" d="M12.7,12.2c-4.3,0-8.4,0-12.7,0c2.1-3.7,4.2-7.3,6.4-11C8.5,4.9,10.6,8.5,12.7,12.2z M3.8,10
			c1.7,0,3.4,0,5.1,0C8,8.5,7.2,7.1,6.4,5.6C5.5,7.1,4.7,8.5,3.8,10z"/>
		<path class="st0" d="M16.9,12.2c2.1-3.7,4.2-7.3,6.3-11c2.1,3.7,4.2,7.3,6.4,11C25.3,12.2,21.1,12.2,16.9,12.2z M20.7,10
			c1.7,0,3.3,0,5.1,0c-0.9-1.5-1.7-2.9-2.5-4.4C22.3,7.1,21.5,8.5,20.7,10z"/>
		<polygon class="st0" points="13.9,13 13.9,14 14.8,14.4 15.6,14 15.6,13 14.8,12.5 		"/>
	</g>
	<g>
		<path class="st0" d="M38.3,21.7c0-5.6,0-11.1,0-16.7c0.1,0,0.2,0,0.3,0c2.6,0,5.3,0,7.9,0c2.1,0,3.8,1.4,4,3.5
			c0.2,1.5-0.3,2.8-1.5,3.7c-0.1,0.1-0.2,0.1-0.3,0.2c0.1,0.1,0.2,0.1,0.3,0.1c1.5,0.7,2.5,1.8,2.8,3.4c0.6,2.6-1.2,5.2-3.8,5.6
			c-0.3,0-0.6,0.1-0.9,0.1c-2.9,0-5.8,0-8.7,0C38.5,21.7,38.4,21.7,38.3,21.7z M42.1,18.6C42.1,18.6,42.1,18.6,42.1,18.6
			c1.5,0,2.9,0.1,4.4,0c0.8,0,1.4-0.5,1.7-1.2c0.3-0.8,0.1-1.5-0.4-2.1c-0.4-0.4-0.9-0.6-1.4-0.6c-1.3,0-2.6,0-3.9,0
			c-0.1,0-0.2,0-0.3,0C42.1,16,42.1,17.3,42.1,18.6z M42.1,11.6c1.1,0,2.2,0,3.2,0c0.6,0,1.1-0.4,1.4-1c0.5-1.1-0.3-2.4-1.6-2.4
			c-0.9,0-1.9,0-2.8,0c-0.1,0-0.1,0-0.2,0C42.1,9.3,42.1,10.4,42.1,11.6z"/>
		<path class="st0" d="M69.6,5h12v3.4h-7.8v3.1h7v3.2h-7v3.4h7.8v3.4h-12V5z"/>
		<path class="st0" d="M84.2,5h4.2l-0.1,13.2h5.5v3.4h-9.7V5z"/>
		<path class="st0" d="M96,5h4.2l-0.1,13.2h5.5v3.4H96V5z"/>
		<path class="st0" d="M112.4,5h5.3l5.9,16.6h-4.4l-0.9-2.8h-6.4l-0.9,2.8h-4.4L112.4,5z M117.3,15.7l-2.3-7l-2.3,7H117.3z"/>
		<path class="st0" d="M63.9,21.2c-0.2-0.3-0.3-0.6-0.5-0.8c-0.1-0.2-0.2-0.3-0.3-0.5c-0.3-0.6-0.7-1.2-1-1.7
			c-0.3-0.6-0.7-1.2-1-1.7c-0.2-0.3-0.3-0.6-0.5-0.9l-0.2-0.3h-3c0,2.2,0,4.3,0,6.4c-1.3,0-2.5,0-3.7,0c0-5.5,0-11.1,0-16.6
			c0.1,0,0.2,0,0.3,0c2.7,0,5.3,0,8,0c2.5,0,4.5,1.7,5.1,4.1c0.4,2.1-0.5,4.3-2.4,5.4c-0.1,0.1-0.2,0.1-0.4,0.2
			c1.3,2.3,2.6,4.6,3.9,7c-0.2,0-0.3,0-0.4,0c-0.7,0-1.3,0-2,0c-0.6,0-1.1,0-1.7,0l-0.2,0L63.9,21.2 M57.5,8.3c0,1.3,0,2.5,0,3.7
			c0.1,0,0.1,0,0.1,0c1.3,0,2.6,0,3.9,0c0.4,0,0.7-0.1,1.1-0.3c0.6-0.4,0.9-1,0.9-1.7c0-0.5-0.2-0.9-0.6-1.2
			c-0.6-0.5-1.4-0.5-2.1-0.5c-1,0-2,0-2.9,0C57.7,8.3,57.6,8.3,57.5,8.3z"/>
	</g>
</g>
</svg>
